<?xml version="1.0" encoding="utf-8"?>
<!-- Generator: Adobe Illustrator 23.0.0, SVG Export Plug-In . SVG Version: 6.00 Build 0)  -->
<svg version="1.1" id="Capa_1" xmlns="http://www.w3.org/2000/svg" xmlns:xlink="http://www.w3.org/1999/xlink" x="0px" y="0px"
	 viewBox="0 0 512 512" style="enable-background:new 0 0 512 512;" xml:space="preserve">
<style type="text/css">
	.st0{fill:#93BA1F;}
	.st1{fill:#C6D420;}
</style>
<path class="st0" d="M272.37,197.03c0.5-39.6,30.19-49.68,30.19-49.68l-10.23-11.37c-28.81,19.84-27.41,51.05-26.11,61.05H272.37z"
	/>
<g>
	<path class="st0" d="M48.22,367.19l-0.82-0.16c-8.68-1.79-15.47-6.08-20.35-12.86c-4.88-6.78-7.33-15.28-7.33-25.48
		c0-10.26,2.47-18.78,7.41-25.56c4.94-6.78,11.78-11.04,20.52-12.78l0.81-0.24c2.5-0.44,5.1-0.65,7.82-0.65
		c2.71,0,5.34,0.24,7.9,0.73l0.73,0.16c6.13,1.3,11.1,4.21,14.9,8.71v-48.19h13.02v117.07H79.81v-9.61
		c-3.74,4.45-8.63,7.35-14.65,8.71l-0.9,0.16c-2.55,0.49-5.21,0.73-7.98,0.73C53.46,367.93,50.77,367.68,48.22,367.19z
		 M32.75,328.69c0,8.47,2.01,14.95,6.02,19.46c4.07,4.51,9.9,6.76,17.5,6.76c7.6,0,13.41-2.25,17.42-6.76
		c4.07-4.5,6.11-10.96,6.11-19.37v-0.16c0-8.41-2.03-14.87-6.11-19.37c-4.02-4.51-9.82-6.76-17.42-6.76c-7.6,0-13.43,2.25-17.5,6.76
		C34.76,313.73,32.75,320.22,32.75,328.69z"/>
	<path class="st0" d="M109.13,275.04c-2.01,0-3.72-0.73-5.13-2.2c-1.46-1.41-2.2-3.15-2.2-5.21c0-2.01,0.73-3.74,2.2-5.21
		c1.41-1.41,3.12-2.12,5.13-2.12c2.06,0,3.8,0.7,5.21,2.12c1.46,1.47,2.2,3.2,2.2,5.21c0,2.06-0.73,3.8-2.2,5.21
		C112.92,274.31,111.19,275.04,109.13,275.04z M102.69,289.45h12.95v78.48h-12.95V289.45z"/>
	<path class="st0" d="M196.16,334.06h-59.75c0.11,1.03,0.21,1.85,0.32,2.44c1.03,5.16,3.12,9.28,6.27,12.37
		c4.12,4.02,9.93,6.02,17.42,6.02c4.94,0,9.33-0.87,13.19-2.6c3.8-1.74,6.7-4.18,8.71-7.33l11.72,5.7
		c-3.09,5.43-7.6,9.66-13.51,12.7c-5.92,3.04-12.62,4.56-20.11,4.56c-11.24,0-20.25-3.5-27.03-10.5
		c-6.73-6.95-10.18-16.31-10.34-28.08v-0.65c0-11.89,3.31-21.41,9.93-28.58c6.62-7.11,15.49-10.66,26.62-10.66
		c9.71,0,17.75,2.71,24.1,8.14c6.35,5.48,10.29,13.03,11.8,22.63c0.38,2.55,0.6,5.13,0.65,7.73V334.06z M182.49,321.93
		c0-0.7-0.05-1.33-0.16-1.87l-0.16-0.57c-2.71-11.34-10.23-17.01-22.55-17.01c-6.95,0-12.4,1.87-16.36,5.62
		c-2.99,2.82-5.05,6.62-6.19,11.4c-0.16,0.71-0.3,1.52-0.41,2.44H182.49z"/>
	<path class="st0" d="M204.68,302.39h-11.93v-12.94h11.97v-26.13h12.94v26.13h11.97v12.94h-11.97v41.69
		c0,7.22,3.15,10.83,9.44,10.83h2.44v13.03h-2.44c-6.73,0-12.16-2.2-16.28-6.59c-4.13-4.34-6.15-10.09-6.15-17.26V302.39z"/>
	<path class="st0" d="M257.57,367.19l-0.82-0.16c-8.68-1.79-15.47-6.08-20.35-12.86c-4.88-6.78-7.33-15.28-7.33-25.48
		c0-10.26,2.47-18.78,7.41-25.56c4.94-6.78,11.78-11.04,20.52-12.78l0.81-0.24c2.5-0.44,5.1-0.65,7.82-0.65
		c2.71,0,5.35,0.24,7.9,0.73l0.73,0.16c6.13,1.3,11.1,4.21,14.9,8.71v-9.52h13.03v78.4h-13.03v-9.61
		c-3.74,4.45-8.63,7.35-14.65,8.71l-0.9,0.16c-2.55,0.49-5.21,0.73-7.98,0.73C262.8,367.93,260.12,367.68,257.57,367.19z
		 M242.1,328.69c0,8.47,2.01,14.95,6.02,19.46c4.07,4.51,9.9,6.76,17.5,6.76c7.6,0,13.41-2.25,17.42-6.76
		c4.07-4.5,6.11-10.96,6.11-19.37v-0.16c0-8.41-2.03-14.87-6.11-19.37c-4.02-4.51-9.82-6.76-17.42-6.76c-7.6,0-13.43,2.25-17.5,6.76
		C244.11,313.73,242.1,320.22,242.1,328.69z"/>
</g>
<g>
	<g>
		<path class="st1" d="M268.93,204.71c-0.07-0.01-0.14-0.03-0.21-0.04c-0.03,0-0.06,0-0.09-0.01
			C268.73,204.69,268.83,204.7,268.93,204.71z"/>
		<path class="st1" d="M366.6,223.47c-5.68-9.99-13.58-18.7-23.98-23.84c-9.57-4.73-20.52-6.72-31.13-5.37
			c-3.42,0.44-6.77,1-10.08,1.98c-1.43,0.43-2.84,0.93-4.23,1.47c-1.8,0.71-3.83,1.07-5.7,1.61c-7.09,2.06-14.19,4.24-21.51,5.31
			c-0.23,0.03-0.47,0.05-0.7,0.08c-0.16,0.02-0.35-0.02-0.53-0.03c0.07,0.01,0.14,0.03,0.21,0.04c-0.1-0.01-0.2-0.03-0.3-0.04
			c-0.56-0.08-1.11-0.15-1.67-0.23c0.55,0.08,1.11,0.16,1.67,0.23c0.03,0,0.06,0,0.09,0.01c-6.35-0.9-12.54-2.65-18.69-4.45
			c-1.53-0.45-3.05-0.89-4.58-1.33c-1.58-0.46-3.22-0.8-4.75-1.4c-2.31-0.89-4.69-1.6-7.1-2.15c-10.43-2.39-21.7-2-31.79,1.71
			c-2.77,1.02-5.51,2.22-8.11,3.64c-2.61,1.44-4.97,3.18-7.31,5.01c-4.46,3.49-7.93,7.78-11.21,12.37
			c-3.54,4.97-6.14,10.49-8.47,16.1c-2.12,5.11-3.72,10.43-4.84,15.84c-1.34,6.41-2.08,12.98-2.19,19.52h15.41
			c0.05-3.51,0.25-7.01,0.69-10.51c1.06-6.94,2.88-13.74,5.5-20.25c2.26-5.21,5.04-10.12,8.39-14.71c2.02-2.55,4.31-4.88,6.82-6.94
			c2.69-1.99,5.58-3.67,8.63-5.02c3.25-1.26,6.63-2.14,10.08-2.67c3.69-0.39,7.4-0.36,11.09,0.07c2.07,0.33,4.11,0.78,6.12,1.35
			c1.15,0.32,2.28,0.7,3.4,1.1c1.47,0.53,2.95,0.96,4.46,1.39c6.29,1.79,12.54,3.78,18.95,5.15c1.5,0.32,3.01,0.59,4.53,0.83
			c2.13,0.33,4.38,0.83,6.54,0.58c3.74-0.43,7.44-1.05,11.11-1.91c6.39-1.5,12.65-3.53,18.98-5.28c2.17-0.6,4.25-1.49,6.42-2.09
			c1.85-0.5,3.74-0.89,5.64-1.18c3.68-0.39,7.38-0.39,11.06,0.03c3.39,0.54,6.71,1.44,9.91,2.69c2.88,1.29,5.62,2.86,8.18,4.71
			c2.54,2.03,4.84,4.33,6.89,6.85c1.79,2.39,3.43,4.88,4.91,7.48c0.31,0.56,0.6,1.13,0.89,1.7h16.91
			C369.82,229.69,368.31,226.52,366.6,223.47z"/>
	</g>
	<g>
		<path class="st1" d="M328.53,367.93h-13.03V250.94l37.61-0.08c10.96,0,19.73,2.99,26.3,8.96c6.57,5.97,9.85,13.95,9.85,23.93
			c0,8.03-2.17,14.82-6.51,20.35c-4.29,5.48-10.23,9.17-17.83,11.07l25.23,52.75h-14.49l-24.5-51.29h-22.63V367.93z M376.24,283.75
			c0-6.4-1.98-11.31-5.94-14.73c-4.02-3.42-9.74-5.13-17.18-5.13h-24.59v39.73h24.59c7.44,0,13.16-1.71,17.18-5.13
			C374.26,295.06,376.24,290.15,376.24,283.75z"/>
		<path class="st1" d="M478.09,334.71c0,10.26-3.66,18.34-10.99,24.26c-7.28,5.97-17.2,8.96-29.8,8.96
			c-12.05,0-21.63-2.66-28.74-7.98c-7.16-5.27-11.13-12.62-11.88-22.06l12.94-1.06c0.54,5.75,3.2,10.2,7.98,13.35
			c4.83,3.15,11.4,4.72,19.7,4.72c8.84,0,15.68-1.76,20.51-5.29c4.83-3.53,7.25-8.49,7.25-14.9c0-6.46-2.42-11.45-7.25-14.98
			c-4.83-3.53-11.67-5.29-20.51-5.29c-11.83,0-21.28-2.88-28.33-8.63c-7.06-5.75-10.58-13.46-10.58-23.12
			c0-9.66,3.53-17.37,10.58-23.12c7.05-5.81,16.49-8.71,28.33-8.71c11.02,0,19.97,2.47,26.86,7.41
			c6.89,4.94,10.83,11.72,11.81,20.35l-12.94,0.98c-0.76-4.99-3.37-8.87-7.82-11.64c-4.45-2.71-10.42-4.07-17.91-4.07
			c-8.25,0-14.63,1.63-19.13,4.88c-4.51,3.31-6.76,7.95-6.76,13.92c0,5.97,2.25,10.58,6.76,13.84c4.5,3.31,10.88,4.97,19.13,4.97
			c12.59,0,22.52,2.96,29.8,8.87C474.43,316.34,478.09,324.45,478.09,334.71z"/>
	</g>
</g>
<path class="st0" d="M254.49,184.38c0.28-0.1,0.56-0.2,0.85-0.3c0.19-0.24,0.37-0.48,0.54-0.72c18.5-25.2-18.99-37.31-29.49-40.13
	c-0.51-0.14-0.95-0.25-1.33-0.35c-0.02,0.38-0.05,0.84-0.07,1.37C224.56,155.1,224.91,194.5,254.49,184.38z"/>
</svg>
