<?xml version="1.0" encoding="UTF-8" standalone="no"?><!DOCTYPE svg PUBLIC "-//W3C//DTD SVG 1.1//EN" "http://www.w3.org/Graphics/SVG/1.1/DTD/svg11.dtd"><svg width="100%" height="100%" viewBox="0 0 1670 4639" version="1.1" xmlns="http://www.w3.org/2000/svg" xmlns:xlink="http://www.w3.org/1999/xlink" xml:space="preserve" xmlns:serif="http://www.serif.com/" style="fill-rule:evenodd;clip-rule:evenodd;stroke-linejoin:round;stroke-miterlimit:2;"><g><path d="M924.266,600.996l-179.284,-0c12.276,213.241 -168.195,212.892 -316.004,227.6c-129.591,12.896 -148.712,104.771 -161.42,219.979c-6.371,57.8 -10.913,115.267 -16.38,173.258c-17.116,181.592 -20.054,236.175 -68.537,365.213c-106.209,282.654 -82,495.167 -175.504,879.808c-17.704,72.875 -4.413,95.75 61.879,200.667c31.55,49.916 63.696,22.958 47.471,-37.708c-16.604,-62.126 -14.95,-108.542 -2.713,-142.959c20.567,-57.833 40.575,-69.375 46.384,-168.917c21.22,-363.166 175.658,-467.591 207.379,-756.504c11.912,-108.475 64.425,-252.3 81.162,-317.141c149.867,414.6 114.825,529.662 65.2,839.225c-31.025,193.529 -68.521,293.295 -65.491,471.712c2.758,162.708 18.858,356.834 45.758,534.25c15.608,102.917 0.833,184.167 -11.346,308.417c-24.754,252.625 14.942,505.167 79.358,778.833c37.163,157.917 25.284,269.375 -64.058,409.167c-14.929,23.375 -11.754,51.792 22.512,52.792l169.226,-0c34.662,-0.5 46.445,-18.209 46.204,-50.584c-0.75,-102.208 6.066,-189.958 -23.004,-289.833c-79.988,-274.834 44.004,-457.875 -4.455,-780.667c-30.137,-200.75 48.217,-204.333 32.221,-407.916c-23.687,-301.292 20.683,-437.292 54.717,-585.501c6.037,-27.749 23.271,-41.291 39.083,-41.375c15.813,0.084 33.042,13.626 39.084,41.375c34.029,148.209 78.404,284.209 54.716,585.501c-15.996,203.583 62.35,207.166 32.217,407.916c-48.454,322.792 75.537,505.833 -4.454,780.667c-29.067,99.875 -22.25,187.625 -23,289.833c-0.242,32.375 11.541,50.084 46.204,50.584l169.225,-0c34.267,-1 37.442,-29.417 22.508,-52.792c-89.333,-139.792 -101.221,-251.25 -64.058,-409.167c64.421,-273.666 104.112,-526.208 79.362,-778.833c-12.183,-124.25 -26.954,-205.5 -11.35,-308.417c26.904,-177.416 43.004,-371.542 45.763,-534.25c3.029,-178.417 -34.467,-278.183 -65.488,-471.712c-49.629,-309.563 -84.67,-424.625 65.192,-839.225c16.742,64.841 69.254,208.666 81.167,317.141c31.716,288.913 186.158,393.338 207.379,756.504c5.808,99.542 25.817,111.084 46.379,168.917c12.242,34.417 13.896,80.833 -2.712,142.959c-16.221,60.666 15.92,87.624 47.475,37.708c66.287,-104.917 79.583,-127.792 61.879,-200.667c-93.504,-384.641 -69.296,-597.154 -175.505,-879.808c-48.483,-129.038 -51.42,-183.621 -68.537,-365.213c-5.467,-57.991 -10.008,-115.458 -16.379,-173.258c-12.709,-115.208 -31.829,-207.083 -161.421,-219.979c-147.808,-14.708 -328.275,-14.359 -316.004,-227.6Z" style="fill:#33a7e4;"/><path d="M834.624,0c113.534,0 207.925,50.233 217.746,173.696c3.433,48.733 -7.208,109.333 -10.921,133.354c-2.075,13.359 -2.346,21.75 8.725,22.058c15.884,0.463 25.225,16.617 18.246,45.025c-10.121,41.288 -27.9,61.884 -35.179,97.434c-3.3,16.037 -9.375,29.887 -24.454,26.716c-4.8,27.709 -10.321,47.642 -32.675,72.021c-24.271,25.292 -45.638,49.229 -71.938,71.079c-18.304,15.213 -41.575,22.725 -69.55,22.725c-27.975,0 -51.246,-7.512 -69.55,-22.725c-26.3,-21.85 -47.671,-45.787 -71.937,-71.079c-22.354,-24.379 -27.875,-44.312 -32.675,-72.021c-15.079,3.171 -21.159,-10.679 -24.454,-26.716c-7.28,-35.55 -25.059,-56.146 -35.184,-97.434c-6.975,-28.408 2.363,-44.562 18.25,-45.025c11.071,-0.308 10.838,-8.699 8.725,-22.058c-6.454,-40.916 -33.808,-192.642 28.021,-202.329c-2.796,-82.646 116.458,-104.721 178.804,-104.721Z" style="fill:#33a7e4;"/></g></svg>