<?xml version="1.0" encoding="UTF-8" standalone="no"?><!DOCTYPE svg PUBLIC "-//W3C//DTD SVG 1.1//EN" "http://www.w3.org/Graphics/SVG/1.1/DTD/svg11.dtd"><svg width="100%" height="100%" viewBox="0 0 1672 4648" version="1.1" xmlns="http://www.w3.org/2000/svg" xmlns:xlink="http://www.w3.org/1999/xlink" xml:space="preserve" xmlns:serif="http://www.serif.com/" style="fill-rule:evenodd;clip-rule:evenodd;stroke-linejoin:round;stroke-miterlimit:2;"><g><path d="M835.924,2454.76c-15.817,0.079 -31.442,10.416 -38.059,41.746c-34.604,178.875 -51.129,286.791 -17.237,610c14.175,135.916 -23.092,195.624 -7.246,386.083c15.437,185.5 -2.996,705.458 11.462,857.333c9.521,99.959 26.05,181.75 26.621,247.167c0.288,32.458 -11.542,50.083 -46.204,50.583l-104.383,0c-31.754,-0.958 -37.875,-25.166 -24.563,-49.625c46.471,-85.375 58.025,-141.708 42.954,-240.5c-66.204,-433.958 -149.42,-715.292 -118.266,-983.125c14.312,-123.042 0.52,-229.708 -15.988,-323.75c-34.387,-195.917 -84.3,-434 -93.466,-529.666c-9.896,-103.084 -2.496,-220.171 9.875,-319.738c17.879,-143.896 25.129,-213.621 78.391,-329.959c57.1,-124.687 77.492,-231.02 7.346,-483.079c-27.354,-98.32 -51.029,-189.878 -61.646,-262.27c-41.666,123.871 -91.216,289.083 -110.004,400.037c-47.492,280.55 -208.137,431.175 -214.058,745.334c-1.867,99.716 -25.804,111.091 -46.379,168.925c-12.246,34.416 -13.905,80.833 2.716,142.958c16.225,60.667 -15.925,87.625 -47.479,37.708c-66.304,-104.916 -82.6,-128.583 -61.875,-200.666c121.117,-421.446 97.004,-586.596 198.621,-858.842c111.35,-298.309 105.304,-454.975 126.604,-584.717c16.458,-100.254 34.496,-165.258 135.587,-181.079c137.413,-21.509 285.342,-8.846 277.034,-222.7l179.283,0c-8.312,213.854 139.613,201.191 277.029,222.7c101.092,15.821 119.125,80.825 135.588,181.079c21.296,129.742 15.258,286.408 126.6,584.717c101.621,272.246 77.508,437.396 198.629,858.842c20.721,72.083 4.425,95.75 -61.883,200.666c-31.546,49.917 -63.7,22.959 -47.471,-37.708c16.617,-62.125 14.958,-108.542 2.712,-142.958c-20.571,-57.834 -44.508,-69.209 -46.383,-168.925c-5.917,-314.159 -166.562,-464.784 -214.058,-745.334c-18.784,-110.954 -68.334,-276.166 -110,-400.037c-10.617,72.392 -34.296,163.95 -61.65,262.27c-70.142,252.059 -49.755,358.392 7.346,483.079c53.262,116.338 60.52,186.063 78.4,329.959c12.362,99.567 19.766,216.654 9.875,319.738c-9.176,95.666 -59.084,333.749 -93.471,529.666c-16.504,94.042 -30.3,200.708 -15.988,323.75c31.15,267.833 -52.058,549.167 -118.266,983.125c-15.071,98.792 -3.521,155.125 42.954,240.5c13.312,24.459 7.187,48.667 -24.567,49.625l-104.379,0c-34.663,-0.5 -46.492,-18.125 -46.204,-50.583c0.575,-65.417 17.1,-147.208 26.621,-247.167c14.462,-151.875 -3.971,-671.833 11.458,-857.333c15.854,-190.459 -21.417,-250.167 -7.242,-386.083c33.896,-323.209 17.371,-431.125 -17.241,-610c-6.613,-31.33 -22.242,-41.667 -38.05,-41.746Z" style="fill:#33a7e4;"/><path d="M614.544,311.192c-6.354,1.317 -12.208,4.754 -15.35,11.746c-10.033,22.325 15.992,60.816 25.717,111.529c4.446,23.171 16.912,33.416 27.383,26.466c11.659,29.692 26.805,56.517 44.58,79.325c38.541,49.409 84.487,79.997 139.037,79.997c54.583,-0 100.521,-30.588 139.033,-79.997c17.805,-22.808 32.942,-49.645 44.605,-79.333c10.466,6.958 22.945,-3.287 27.391,-26.458c9.721,-50.713 35.738,-89.204 25.704,-111.529c-3.137,-7.004 -8.983,-10.421 -15.345,-11.733c9.754,-60.272 10.966,-127.276 -18.059,-191.784c-35.846,-79.7 -118.421,-119.442 -203.329,-119.421c-84.887,0 -167.467,39.713 -203.312,119.421c-29.034,64.521 -27.8,131.504 -18.055,191.771Z" style="fill:#33a7e4;"/></g></svg>