<?xml version="1.0" encoding="UTF-8" standalone="no"?><!DOCTYPE svg PUBLIC "-//W3C//DTD SVG 1.1//EN" "http://www.w3.org/Graphics/SVG/1.1/DTD/svg11.dtd"><svg width="100%" height="100%" viewBox="0 0 1670 4639" version="1.1" xmlns="http://www.w3.org/2000/svg" xmlns:xlink="http://www.w3.org/1999/xlink" xml:space="preserve" xmlns:serif="http://www.serif.com/" style="fill-rule:evenodd;clip-rule:evenodd;stroke-linejoin:round;stroke-miterlimit:2;"><g><path d="M834.64,2482.81c-15.834,0.083 -31.209,12.625 -29.834,41.374c9.708,204.584 -37.875,318.334 -43.709,581.834c-5.541,253.042 -70.541,308.458 -50.041,436.125c55.5,345.083 -78,481.25 2.001,756.125c29.083,99.875 22.249,187.625 22.999,289.833c0.25,32.375 -11.541,50.084 -46.208,50.584l-169.209,-0c-34.291,-1 -37.458,-29.375 -22.499,-52.792c89.333,-139.792 94.499,-252.708 47.416,-407.917c-106.083,-349.708 -139.292,-493.125 -99.792,-780.083c17.042,-123.75 4.626,-206.083 -14.541,-308.417c-31.833,-170.083 -76.792,-365.416 -74.75,-540.375c2.042,-178.458 5.041,-286.97 42.042,-470.496c24.708,-122.425 -17.708,-144.325 10.541,-302.145c26.375,-147.234 41.75,-231.909 13.917,-371.617c-11.834,58.721 -15.792,81.912 -29.708,163.942c-47.501,280.55 -224.167,447.254 -233.126,749.149c-2.916,99.667 -25.791,111.084 -46.374,168.917c-12.208,34.417 -13.876,80.833 2.708,142.959c16.25,60.666 -15.916,87.624 -47.458,37.708c-66.293,-104.917 -79.584,-127.792 -61.876,-200.667c93.5,-384.654 51.501,-602.016 155.209,-879.816c45.292,-121.379 35.75,-177.804 47.875,-337.029c4.25,-55.684 8.541,-112.88 15.833,-168.088c17.333,-130.917 57.459,-222.913 195.583,-258.225c134.333,-34.346 296.251,-54.254 304.834,-231.963l216.333,0c8.542,177.709 170.458,197.617 304.791,231.963c138.126,35.312 178.251,127.308 195.585,258.225c7.291,55.208 11.583,112.404 15.832,168.088c12.167,159.225 2.584,215.65 47.875,337.029c103.709,277.8 61.709,495.162 155.208,879.816c17.709,72.875 4.417,95.75 -61.874,200.667c-31.542,49.916 -63.667,22.958 -47.459,-37.708c16.584,-62.126 14.959,-108.542 2.709,-142.959c-20.583,-57.833 -43.416,-69.25 -46.376,-168.917c-8.957,-301.895 -185.624,-468.599 -233.124,-749.149c-13.876,-82.03 -17.875,-105.221 -29.708,-163.942c-27.834,139.708 -12.417,224.383 13.916,371.617c28.292,157.82 -14.125,179.72 10.542,302.145c37,183.526 40,292.038 42.083,470.496c2,174.959 -42.958,370.292 -74.791,540.375c-19.167,102.334 -31.584,184.667 -14.542,308.417c39.5,286.958 6.292,430.375 -99.792,780.083c-47.083,155.209 -41.916,268.125 47.459,407.917c14.916,23.417 11.75,51.792 -22.543,52.792l-169.207,-0c-34.667,-0.5 -46.459,-18.209 -46.209,-50.584c0.751,-102.208 -6.083,-189.958 23,-289.833c80,-274.875 -53.499,-411.042 2,-756.125c20.542,-127.667 -44.458,-183.083 -50.042,-436.125c-5.833,-263.5 -53.374,-377.25 -43.708,-581.834c1.417,-28.749 -13.999,-41.291 -29.791,-41.374Z" style="fill:#949494;"/><path d="M834.64,0c113.5,0 207.916,50.233 217.75,173.696c3.417,48.733 -7.209,109.333 -10.959,133.354c-2.042,13.359 -2.333,21.75 8.75,22.058c15.876,0.463 25.209,16.617 18.25,45.025c-10.125,41.288 -27.917,61.884 -35.208,97.434c-3.292,16.037 -9.375,29.887 -24.416,26.716c-4.834,27.709 -10.334,47.642 -32.709,72.021c-24.25,25.292 -45.625,49.229 -71.917,71.079c-18.291,15.213 -41.583,22.725 -69.541,22.725c-28,0 -51.251,-7.512 -69.583,-22.725c-26.292,-21.85 -47.668,-45.787 -71.917,-71.079c-22.376,-24.379 -27.876,-44.312 -32.667,-72.021c-15.083,3.171 -21.167,-10.679 -24.458,-26.716c-7.292,-35.55 -25.083,-56.146 -35.209,-97.434c-6.958,-28.408 2.375,-44.562 18.25,-45.025c11.083,-0.308 10.875,-8.699 8.75,-22.058c-6.458,-40.916 -33.833,-192.642 28.001,-202.329c-2.793,-82.646 116.458,-104.721 178.833,-104.721Z" style="fill:#949494;"/></g></svg>