<?xml version="1.0" encoding="UTF-8" standalone="no"?><!DOCTYPE svg PUBLIC "-//W3C//DTD SVG 1.1//EN" "http://www.w3.org/Graphics/SVG/1.1/DTD/svg11.dtd"><svg width="100%" height="100%" viewBox="0 0 1670 4639" version="1.1" xmlns="http://www.w3.org/2000/svg" xmlns:xlink="http://www.w3.org/1999/xlink" xml:space="preserve" xmlns:serif="http://www.serif.com/" style="fill-rule:evenodd;clip-rule:evenodd;stroke-linejoin:round;stroke-miterlimit:2;"><g><path d="M834.639,2482.81c-15.833,0.083 -28.75,13.208 -29.833,41.374c-5.709,194.792 -52.542,284.167 -47.334,583.042c3.542,204.208 -80.041,310.708 -56.208,434.917c61.833,322.125 -68.292,481.292 11.792,756.125c29,99.917 22.292,187.625 23,289.833c0.25,32.375 -11.542,50.084 -46.167,50.584l-169.25,-0c-34.25,-1 -37.458,-29.375 -22.5,-52.792c89.334,-139.792 94.542,-252.708 47.417,-407.917c-106.083,-349.708 -108.5,-532.333 -81.25,-780.083c13.667,-124.167 12,-206.042 -7.167,-308.417c-31.875,-170.125 -54.666,-369.041 -55.041,-531.791c-0.417,-178.5 11.25,-290.23 46.416,-474.171c27.208,-142.1 19.167,-194.571 36.417,-310.742c22,-147.992 -18.167,-307.875 -57.042,-439.016c-11.833,67.295 -24.375,138.291 -38.25,220.32c-47.541,280.558 -220.5,461.963 -229.458,763.858c-2.958,99.667 -25.833,111.084 -46.375,168.917c-12.25,34.417 -13.917,80.833 2.708,142.959c16.209,60.666 -15.917,87.624 -47.5,37.708c-66.292,-104.917 -79.583,-127.792 -61.875,-200.667c93.542,-384.654 52.667,-604.483 156.459,-882.262c48.25,-129.171 24.916,-183.583 56.833,-370.108c7.375,-43.347 11.125,-89.838 15.458,-133.792c12.917,-131.438 46.75,-225.238 185.75,-256.996c134.375,-30.7 296.292,-44.988 304.834,-222.7l216.333,-0c8.542,177.712 170.458,192 304.833,222.7c139,31.758 172.833,125.558 185.75,256.996c4.333,43.954 8.084,90.445 15.459,133.792c31.916,186.525 8.583,240.937 56.833,370.108c103.792,277.779 62.917,497.608 156.458,882.262c17.708,72.875 4.417,95.75 -61.874,200.667c-31.584,49.916 -63.709,22.958 -47.501,-37.708c16.625,-62.126 14.959,-108.542 2.709,-142.959c-20.546,-57.833 -43.417,-69.25 -46.376,-168.917c-8.958,-301.895 -181.916,-483.3 -229.416,-763.858c-13.917,-82.029 -26.459,-153.025 -38.292,-220.32c-38.875,131.141 -79.041,291.024 -57.041,439.016c17.25,116.171 9.208,168.642 36.416,310.742c35.167,183.941 46.834,295.671 46.417,474.171c-0.375,162.75 -23.167,361.666 -55.042,531.791c-19.166,102.375 -20.833,184.25 -7.166,308.417c27.25,247.75 24.833,430.375 -81.25,780.083c-47.125,155.209 -41.917,268.125 47.416,407.917c14.958,23.417 11.75,51.792 -22.5,52.792l-169.25,-0c-34.625,-0.5 -46.417,-18.209 -46.166,-50.584c0.708,-102.208 -6.001,-189.916 23,-289.833c80.083,-274.833 -50.042,-434 11.791,-756.125c23.833,-124.209 -59.75,-230.709 -56.208,-434.917c5.208,-298.875 -41.625,-388.25 -47.333,-583.042c-1.084,-28.166 -14,-41.291 -29.834,-41.374Z" style="fill:#949494;"/><path d="M834.639,0c113.542,0 207.917,50.233 217.75,173.696c3.417,48.733 -7.208,109.333 -10.916,133.354c-2.084,13.359 -2.334,21.75 8.708,22.058c15.875,0.463 25.25,16.617 18.25,45.025c-10.125,41.288 -27.875,61.884 -35.167,97.434c-3.291,16.037 -9.375,29.887 -24.458,26.716c-4.792,27.709 -10.333,47.642 -32.667,72.021c-24.291,25.292 -45.666,49.229 -71.958,71.079c-18.292,15.213 -41.584,22.725 -69.542,22.725c-27.958,0 -51.25,-7.512 -69.541,-22.725c-26.292,-21.85 -47.667,-45.787 -71.959,-71.079c-22.333,-24.379 -27.875,-44.312 -32.666,-72.021c-15.084,3.171 -21.167,-10.679 -24.459,-26.716c-7.292,-35.55 -25.041,-56.146 -35.166,-97.434c-7.001,-28.408 2.374,-44.562 18.25,-45.025c11.041,-0.308 10.833,-8.699 8.708,-22.058c-6.458,-40.916 -33.792,-192.642 28.041,-202.329c-2.791,-82.646 116.459,-104.721 178.792,-104.721Z" style="fill:#949494;"/></g></svg>