<?xml version="1.0" encoding="UTF-8" standalone="no"?><!DOCTYPE svg PUBLIC "-//W3C//DTD SVG 1.1//EN" "http://www.w3.org/Graphics/SVG/1.1/DTD/svg11.dtd"><svg width="100%" height="100%" viewBox="0 0 13831 6859" version="1.1" xmlns="http://www.w3.org/2000/svg" xmlns:xlink="http://www.w3.org/1999/xlink" xml:space="preserve" xmlns:serif="http://www.serif.com/" style="fill-rule:evenodd;clip-rule:evenodd;stroke-linejoin:round;stroke-miterlimit:2;"><g><path d="M6915.1,2085.62c1333.57,0 2540.88,540.55 3414.81,1414.48c861.588,861.583 1399.12,2047.23 1414.13,3358.4l-71.467,-0c-2.942,-252.9 -25.583,-501.067 -66.529,-743.017l-330.492,58.275l-9.475,-53.763l330.575,-58.287c-46.616,-257.421 -113.941,-507.621 -200.187,-748.842l-315.855,114.967l-18.666,-51.308l315.854,-114.959c-90.504,-244.179 -200.454,-478.912 -328.004,-702.3l-290.696,167.826l-27.3,-47.28l290.654,-167.804c-131.229,-223.829 -280.217,-435.984 -445.046,-634.509l-256.612,215.325l-35.096,-41.82l256.587,-215.304c-83.749,-98.579 -171.428,-193.729 -262.837,-285.142c-91.413,-91.413 -186.563,-179.092 -285.142,-262.837l-215.304,256.587l-41.82,-35.1l215.325,-256.604c-198.539,-164.833 -410.667,-313.833 -634.509,-445.05l-167.804,290.65l-47.28,-27.296l167.822,-290.696c-223.388,-127.542 -458.117,-237.521 -702.3,-328.004l-114.955,315.854l-51.308,-18.666l114.967,-315.855c-241.221,-86.233 -491.425,-153.583 -748.842,-200.191l-58.287,330.578l-53.763,-9.474l58.275,-330.492c-251.225,-42.495 -509.15,-65.304 -772.125,-66.779l0,334.812l-54.596,0l0,-334.812c-262.975,1.475 -520.904,24.271 -772.125,66.779l58.271,330.492l-53.763,9.474l-58.283,-330.578c-257.421,46.608 -507.624,113.958 -748.846,200.191l114.967,315.855l-51.304,18.666l-114.959,-315.854c-244.183,90.491 -478.9,200.462 -702.3,328.004l167.825,290.696l-47.283,27.296l-167.8,-290.65c-223.833,131.217 -435.987,280.217 -634.512,445.05l215.325,256.604l-41.821,35.1l-215.304,-256.587c-98.588,83.745 -193.729,171.424 -285.142,262.837c-91.409,91.413 -179.088,186.563 -262.838,285.142l256.592,215.304l-35.1,41.82l-256.608,-215.325c-164.829,198.534 -313.829,410.667 -445.05,634.509l290.654,167.804l-27.296,47.28l-290.696,-167.826c-127.541,223.388 -237.521,458.121 -328.004,702.3l315.85,114.959l-18.662,51.308l-315.854,-114.967c-86.238,241.221 -153.584,491.421 -200.192,748.842l330.575,58.287l-9.471,53.763l-330.496,-58.275c-40.925,241.95 -63.595,490.117 -66.525,743.017l-71.471,-0c15.009,-1311.18 552.542,-2496.82 1414.13,-3358.4c873.93,-873.93 2081.25,-1414.48 3414.81,-1414.48Z" style="fill:#8c8c8c;fill-opacity:0.7;"/><path d="M914.6,3475.78c-569.1,990.543 -900.162,2135.13 -914.6,3355.7l1925.19,0c14.27,-869.942 251.412,-1685.82 656.654,-2393.13l-1667.24,-962.58Z" style="fill:#33a7e4;fill-opacity:0.7;"/><path d="M3384.98,967.404c-969.658,576.93 -1786.33,1384.26 -2374.51,2346.38l1668.04,963.041c418.424,-670.375 991.416,-1234.43 1669.18,-1641.98l-962.704,-1667.44Z" style="fill:#33e46d;fill-opacity:0.7;"/><path d="M7009.21,1925.22c844.062,15.616 1637.03,240.933 2328.92,626.062l962.696,-1667.45c-975.271,-548.837 -2096.95,-867.892 -3291.62,-883.838l0,1925.22Z" style="fill:#ff3d0c;fill-opacity:0.7;"/><path d="M3529.38,883.838l962.692,1667.45c691.887,-385.129 1484.85,-610.446 2328.91,-626.062l-0,-1925.22c-1194.65,15.946 -2316.35,335.013 -3291.6,883.838Z" style="fill:#ff9439;fill-opacity:0.7;"/><path d="M11248.4,4438.35c405.238,707.318 642.38,1523.18 656.655,2393.14l1925.19,0c-14.441,-1220.58 -345.503,-2365.16 -914.613,-3355.71l-1667.23,962.575Z" style="fill:#c7327a;fill-opacity:0.7;"/><path d="M9482.51,2634.84c677.767,407.55 1250.76,971.592 1669.18,1641.97l1668.04,-963.042c-588.18,-962.112 -1404.87,-1769.43 -2374.52,-2346.36l-962.705,1667.44Z" style="fill:#f8314c;fill-opacity:0.7;"/><g><path d="M1426.13,5873.28l-24.106,-4.953l-30.206,-151.413l25.684,5.277l22.644,119.801l68.471,-101.082l25.684,5.277l-88.171,127.093Z" style="fill:#fff;fill-rule:nonzero;"/><path d="M1575.96,5627.71l-6.049,25.664l-163.537,-38.544c4.437,7.568 8.42,17.06 11.95,28.477c3.53,11.417 5.827,21.465 6.892,30.144l-24.809,-5.848c-3.365,-15.943 -8.583,-30.416 -15.651,-43.42c-7.069,-13.003 -14.592,-22.803 -22.569,-29.399l3.898,-16.539l209.875,49.465Z" style="fill:#fff;fill-rule:nonzero;"/><path d="M1490.19,5492.46c-6.714,9.517 -14.341,15.855 -22.88,19.014c-8.539,3.158 -17.806,3.39 -27.8,0.694c-15.086,-4.069 -26.305,-12.912 -33.658,-26.527c-7.352,-13.615 -8.599,-29.427 -3.742,-47.435c4.883,-18.103 14.069,-31.253 27.558,-39.448c13.488,-8.196 27.775,-10.259 42.861,-6.19c9.617,2.594 17.305,7.373 23.063,14.338c5.758,6.964 9.184,16.106 10.277,27.426c7.582,-11.609 16.89,-19.491 27.923,-23.646c11.033,-4.155 22.961,-4.503 35.784,-1.044c17.726,4.781 30.932,15.07 39.618,30.865c8.686,15.796 10.27,33.923 4.751,54.384c-5.519,20.46 -16.028,35.326 -31.526,44.598c-15.499,9.272 -32.299,11.466 -50.402,6.583c-13.483,-3.637 -23.852,-10.1 -31.107,-19.39c-7.255,-9.29 -10.828,-20.698 -10.72,-34.222Zm-44.509,-6.544c9.805,2.645 18.672,1.648 26.599,-2.99c7.927,-4.639 13.251,-12.003 15.972,-22.091c2.645,-9.806 1.725,-18.677 -2.759,-26.613c-4.485,-7.936 -11.206,-13.112 -20.163,-15.528c-9.334,-2.518 -18.055,-1.406 -26.161,3.336c-8.107,4.742 -13.457,11.922 -16.051,21.539c-2.62,9.711 -1.683,18.612 2.811,26.702c4.493,8.09 11.077,13.305 19.752,15.645Zm93.535,34.03c7.26,1.958 14.748,2.132 22.465,0.522c7.717,-1.61 14.353,-5.308 19.909,-11.092c5.555,-5.784 9.388,-12.589 11.499,-20.414c3.281,-12.163 2.077,-23.26 -3.613,-33.291c-5.689,-10.031 -14.568,-16.674 -26.637,-19.93c-12.257,-3.306 -23.493,-1.962 -33.707,4.032c-10.214,5.994 -16.974,15.119 -20.281,27.377c-3.23,11.974 -1.946,22.966 3.85,32.975c5.796,10.009 14.635,16.616 26.515,19.821Z" style="fill:#fff;fill-rule:nonzero;"/><path d="M1640.39,5386.97l-28.808,-8.476l8.477,-28.808l28.808,8.476l-8.477,28.808Z" style="fill:#fff;fill-rule:nonzero;"/><path d="M1605.93,5304.17l6.176,-27.089c13.463,2.139 24.562,0.681 33.298,-4.375c8.735,-5.056 14.705,-12.609 17.908,-22.657c3.857,-12.096 2.56,-23.784 -3.888,-35.065c-6.449,-11.28 -17.209,-19.323 -32.282,-24.129c-14.329,-4.568 -26.916,-4.148 -37.763,1.26c-10.846,5.409 -18.346,14.626 -22.499,27.652c-2.58,8.094 -3.071,15.984 -1.473,23.669c1.599,7.684 4.736,14.322 9.411,19.912l-10.59,22.607l-98.773,-53.321l32.436,-101.742l24.005,7.653l-26.029,81.644l51.473,28.556c-4.644,-15.01 -4.816,-29.261 -0.515,-42.752c5.696,-17.864 16.688,-30.964 32.978,-39.301c16.29,-8.336 34.158,-9.405 53.604,-3.205c18.516,5.902 32.798,16.401 42.849,31.495c12.379,18.399 14.95,38.949 7.712,61.652c-5.933,18.608 -15.985,32.136 -30.158,40.584c-14.174,8.448 -30.133,10.765 -47.88,6.952Z" style="fill:#fff;fill-rule:nonzero;"/><path d="M2205.78,4090.54l-13.382,22.72l-144.772,-85.269c1.995,8.542 2.987,18.788 2.976,30.738c-0.012,11.95 -0.795,22.228 -2.349,30.832l-21.962,-12.935c1.509,-16.225 0.814,-31.594 -2.084,-46.108c-2.898,-14.514 -7.18,-26.103 -12.844,-34.766l8.623,-14.641l185.794,109.429Z" style="fill:#fff;fill-rule:nonzero;"/><path d="M2613.16,3316.2c-10.112,5.78 -19.704,8.294 -28.778,7.541c-9.073,-0.753 -17.567,-4.466 -25.48,-11.139c-11.945,-10.073 -18.367,-22.833 -19.265,-38.28c-0.898,-15.448 4.665,-30.301 16.689,-44.56c12.087,-14.335 25.976,-22.359 41.666,-24.075c15.689,-1.716 29.507,2.463 41.452,12.535c7.615,6.422 12.557,14.006 14.825,22.753c2.269,8.747 1.503,18.48 -2.298,29.199c11.783,-7.309 23.552,-10.51 35.307,-9.604c11.754,0.906 22.708,5.64 32.862,14.201c14.035,11.835 21.645,26.747 22.828,44.734c1.183,17.987 -5.056,35.081 -18.716,51.282c-13.661,16.2 -29.475,25.221 -47.441,27.061c-17.966,1.839 -34.116,-3.284 -48.45,-15.371c-10.676,-9.002 -17.334,-19.247 -19.975,-30.735c-2.64,-11.488 -1.049,-23.335 4.774,-35.542Zm-37.555,-24.77c7.764,6.547 16.219,9.397 25.364,8.55c9.146,-0.847 17.086,-5.265 23.822,-13.253c6.547,-7.764 9.469,-16.191 8.765,-25.279c-0.703,-9.088 -4.601,-16.622 -11.694,-22.603c-7.391,-6.232 -15.762,-8.916 -25.114,-8.051c-9.351,0.864 -17.238,5.104 -23.659,12.719c-6.484,7.69 -9.403,16.15 -8.756,25.382c0.646,9.232 4.404,16.743 11.272,22.535Zm70.337,70.424c5.749,4.847 12.459,8.175 20.133,9.983c7.673,1.807 15.25,1.267 22.732,-1.622c7.481,-2.889 13.834,-7.431 19.06,-13.628c8.121,-9.63 11.727,-20.194 10.818,-31.69c-0.908,-11.496 -6.14,-21.274 -15.696,-29.332c-9.706,-8.184 -20.454,-11.722 -32.245,-10.615c-11.792,1.107 -21.779,6.513 -29.963,16.218c-7.995,9.481 -11.485,19.983 -10.471,31.505c1.015,11.522 6.225,21.249 15.632,29.181Z" style="fill:#fff;fill-rule:nonzero;"/><path d="M2794,3284.1l-22.508,-19.879l19.879,-22.508l22.508,19.879l-19.879,22.508Z" style="fill:#fff;fill-rule:nonzero;"/><path d="M2797.77,3194.58l17.069,-21.923c11.289,7.641 21.961,11.021 32.016,10.141c10.055,-0.88 18.662,-5.193 25.82,-12.938c8.617,-9.324 12.394,-20.46 11.331,-33.411c-1.064,-12.95 -7.404,-24.794 -19.023,-35.531c-11.044,-10.208 -22.625,-15.159 -34.741,-14.854c-12.116,0.304 -22.814,5.477 -32.093,15.517c-5.767,6.24 -9.554,13.179 -11.36,20.817c-1.807,7.639 -1.777,14.98 0.09,22.024l-19.169,15.994l-66.888,-90.141l72.479,-78.424l18.503,17.101l-58.162,62.932l34.531,47.671c2.151,-15.564 8.032,-28.546 17.643,-38.945c12.726,-13.77 28.233,-20.981 46.521,-21.632c18.287,-0.652 34.926,5.949 49.915,19.802c14.272,13.19 22.763,28.75 25.473,46.68c3.421,21.91 -2.956,41.615 -19.128,59.114c-13.257,14.344 -28.093,22.34 -44.51,23.989c-16.417,1.649 -31.856,-3.012 -46.317,-13.983Z" style="fill:#fff;fill-rule:nonzero;"/><path d="M2904.71,3067.74l-19.031,-18.46l56.402,-58.144l19.031,18.46l-56.402,58.144Z" style="fill:#fff;fill-rule:nonzero;"/><path d="M3103.36,2923.71l17.771,18.066l-101.193,99.538c-4.591,-4.388 -8.14,-9.458 -10.648,-15.211c-4.203,-9.426 -6.755,-20.271 -7.655,-32.536c-0.901,-12.265 -0.304,-28.057 1.789,-47.375c3.217,-30.013 3.828,-51.881 1.835,-65.605c-1.993,-13.724 -6.482,-24.137 -13.467,-31.238c-7.327,-7.449 -16.171,-11.113 -26.53,-10.991c-10.36,0.121 -19.821,4.394 -28.384,12.817c-9.051,8.903 -13.621,18.74 -13.709,29.512c-0.089,10.772 4.557,20.996 13.938,30.672l-21.272,17.02c-12.853,-15.713 -18.678,-31.592 -17.475,-47.638c1.203,-16.045 9.079,-31.224 23.63,-45.537c14.69,-14.45 30.323,-21.813 46.898,-22.091c16.576,-0.278 30.787,5.606 42.635,17.65c6.026,6.127 10.697,13.382 14.011,21.765c3.315,8.383 5.284,18.706 5.908,30.968c0.624,12.263 -0.202,30.745 -2.477,55.449c-1.965,20.562 -2.888,34.107 -2.769,40.633c0.119,6.527 0.811,12.523 2.078,17.989l75.086,-73.857Z" style="fill:#fff;fill-rule:nonzero;"/><path d="M3203.56,2864.93l-34.95,-37.711l-68.332,63.327l-16.429,-17.728l-22.715,-168.68l15.794,-14.637l94.592,102.067l21.273,-19.715l16.429,17.728l-21.273,19.715l34.95,37.711l-19.339,17.923Zm-51.379,-55.439l-65.817,-71.017l16.502,116.72l49.315,-45.703Z" style="fill:#fff;fill-rule:nonzero;"/><path d="M3275.81,2799.6l-19.886,-22.502l22.502,-19.886l19.885,22.502l-22.501,19.886Z" style="fill:#fff;fill-rule:nonzero;"/><path d="M3298.1,2713.52l17.847,-18.144c9.329,7.715 18.039,11.67 26.131,11.866c8.091,0.196 15.755,-2.762 22.991,-8.875c6.192,-5.231 10.422,-11.233 12.69,-18.006c2.268,-6.774 2.893,-13.79 1.875,-21.048c-1.017,-7.257 -3.922,-15.766 -8.714,-25.524c-4.791,-9.759 -10.716,-18.816 -17.774,-27.171c-0.757,-0.895 -1.928,-2.206 -3.515,-3.934c1.391,9.819 0.284,19.67 -3.319,29.553c-3.604,9.884 -9.472,18.26 -17.603,25.129c-13.578,11.469 -29.226,16.251 -46.944,14.344c-17.718,-1.907 -33.383,-10.918 -46.995,-27.032c-14.054,-16.636 -20.46,-34.171 -19.221,-52.603c1.24,-18.433 9.245,-33.888 24.016,-46.366c10.668,-9.012 22.849,-14.379 36.541,-16.103c13.693,-1.723 27.324,0.793 40.892,7.548c13.568,6.755 28.859,20.204 45.874,40.346c17.709,20.963 29.534,39.577 35.476,55.843c5.942,16.265 7.159,31.44 3.652,45.524c-3.507,14.084 -11.303,26.23 -23.388,36.439c-12.832,10.84 -26.322,16.132 -40.472,15.876c-14.15,-0.255 -27.497,-6.143 -40.04,-17.662Zm21.312,-142.068c-9.768,-11.564 -20.596,-18.14 -32.486,-19.73c-11.889,-1.59 -22.16,1.271 -30.814,8.581c-8.952,7.562 -13.66,17.803 -14.124,30.723c-0.464,12.919 4.22,25.198 14.051,36.836c8.822,10.444 19.143,16.267 30.961,17.47c11.818,1.203 22.352,-2.103 31.602,-9.918c9.326,-7.877 14.234,-17.616 14.725,-29.217c0.491,-11.6 -4.147,-23.182 -13.915,-34.745Z" style="fill:#fff;fill-rule:nonzero;"/><path d="M5159.81,1667.76l8.548,23.857l-133.625,47.878c-2.325,-5.91 -3.418,-12.002 -3.28,-18.275c0.141,-10.32 2.376,-21.236 6.706,-32.746c4.331,-11.51 11.499,-25.593 21.507,-42.249c15.516,-25.892 25.249,-45.484 29.2,-58.778c3.951,-13.293 4.246,-24.628 0.886,-34.005c-3.524,-9.837 -10.014,-16.874 -19.467,-21.111c-9.454,-4.238 -19.835,-4.33 -31.143,-0.279c-11.951,4.282 -20.228,11.293 -24.829,21.033c-4.602,9.741 -4.676,20.97 -0.222,33.69l-26.45,6.521c-5.072,-19.656 -3.695,-36.514 4.131,-50.573c7.826,-14.059 21.345,-24.531 40.559,-31.416c19.398,-6.95 36.678,-7.073 51.84,-0.368c15.162,6.705 25.592,18.009 31.29,33.914c2.899,8.09 4.094,16.635 3.584,25.635c-0.51,9 -3.055,19.196 -7.635,30.588c-4.58,11.393 -13.087,27.822 -25.519,49.29c-10.414,17.839 -16.936,29.745 -19.568,35.719c-2.631,5.974 -4.519,11.708 -5.663,17.201l99.15,-35.526Z" style="fill:#fff;fill-rule:nonzero;"/><path d="M5177.87,1628.95l25.617,-10.758c6.103,12.189 13.753,20.362 22.951,24.518c9.198,4.156 18.814,4.61 28.848,1.361c12.078,-3.911 20.824,-11.772 26.238,-23.584c5.414,-11.813 5.684,-25.244 0.811,-40.295c-4.633,-14.308 -12.306,-24.296 -23.02,-29.962c-10.713,-5.667 -22.574,-6.395 -35.581,-2.184c-8.083,2.618 -14.782,6.814 -20.097,12.589c-5.316,5.776 -8.884,12.192 -10.705,19.248l-24.545,4.56l-14.187,-111.347l101.594,-32.893l7.761,23.97l-81.526,26.396l6.768,58.473c9.496,-12.518 20.98,-20.958 34.452,-25.32c17.838,-5.775 34.89,-4.47 51.154,3.916c16.265,8.386 27.541,22.288 33.828,41.705c5.986,18.489 5.771,36.214 -0.644,53.175c-7.746,20.779 -22.953,34.838 -45.623,42.178c-18.581,6.017 -35.433,5.724 -50.555,-0.876c-15.122,-6.6 -26.302,-18.224 -33.539,-34.87Z" style="fill:#fff;fill-rule:nonzero;"/><path d="M5333.04,1570.77l-7.554,-25.415l77.648,-23.081l7.554,25.415l-77.648,23.081Z" style="fill:#fff;fill-rule:nonzero;"/><path d="M5577.39,1542.3l6.644,24.455l-136.977,37.217c-1.853,-6.074 -2.464,-12.233 -1.833,-18.477c0.952,-10.277 4.039,-20.982 9.262,-32.116c5.222,-11.134 13.477,-24.609 24.764,-40.427c17.504,-24.59 28.749,-43.356 33.733,-56.297c4.985,-12.942 6.171,-24.218 3.56,-33.831c-2.74,-10.084 -8.656,-17.609 -17.747,-22.577c-9.091,-4.968 -19.433,-5.877 -31.024,-2.728c-12.251,3.329 -21.054,9.667 -26.407,19.015c-5.354,9.348 -6.311,20.537 -2.872,33.568l-26.881,4.419c-3.51,-19.994 -0.811,-36.691 8.097,-50.091c8.908,-13.4 23.209,-22.776 42.906,-28.127c19.884,-5.403 37.12,-4.166 51.707,3.711c14.588,7.877 24.096,19.967 28.526,36.27c2.253,8.293 2.771,16.906 1.555,25.838c-1.216,8.932 -4.555,18.897 -10.017,29.893c-5.463,10.997 -15.235,26.706 -29.319,47.129c-11.784,16.964 -19.223,28.321 -22.316,34.069c-3.094,5.749 -5.426,11.316 -6.999,16.702l101.638,-27.615Z" style="fill:#fff;fill-rule:nonzero;"/><path d="M5603.39,1510.64l24.104,-8.169c4.858,11.089 10.856,18.542 17.993,22.359c7.137,3.817 15.312,4.625 24.525,2.423c7.884,-1.884 14.363,-5.339 19.437,-10.367c5.074,-5.028 8.79,-11.011 11.148,-17.95c2.358,-6.94 3.594,-15.845 3.708,-26.716c0.113,-10.87 -1.101,-21.625 -3.643,-32.263c-0.272,-1.14 -0.728,-2.838 -1.368,-5.095c-3.177,9.394 -8.599,17.693 -16.266,24.896c-7.667,7.204 -16.676,12.043 -27.03,14.516c-17.286,4.131 -33.412,1.357 -48.375,-8.321c-14.964,-9.679 -24.896,-24.776 -29.798,-45.292c-5.061,-21.181 -2.89,-39.723 6.514,-55.625c9.404,-15.902 23.509,-26.099 42.315,-30.593c13.583,-3.245 26.876,-2.556 39.878,2.069c13.003,4.624 24.043,13.006 33.118,25.145c9.075,12.139 16.677,31.032 22.804,56.677c6.378,26.69 8.559,48.635 6.543,65.834c-2.015,17.199 -7.758,31.297 -17.229,42.295c-9.471,10.999 -21.9,18.336 -37.287,22.012c-16.337,3.904 -30.766,2.557 -43.286,-4.04c-12.521,-6.597 -21.789,-17.862 -27.805,-33.795Zm82.978,-117.269c-3.517,-14.723 -10.227,-25.469 -20.128,-32.24c-9.901,-6.772 -20.361,-8.841 -31.379,-6.208c-11.398,2.723 -20.212,9.749 -26.441,21.077c-6.229,11.328 -7.574,24.401 -4.033,39.218c3.177,13.298 9.771,23.143 19.783,29.536c10.012,6.394 20.907,8.183 32.685,5.369c11.872,-2.837 20.639,-9.324 26.299,-19.462c5.661,-10.138 6.732,-22.568 3.214,-37.29Z" style="fill:#fff;fill-rule:nonzero;"/><path d="M5788.33,1518.65l-6.308,-29.36l29.36,-6.307l6.307,29.359l-29.359,6.308Z" style="fill:#fff;fill-rule:nonzero;"/><path d="M5849.75,1454.57l24.45,-7.066c4.35,11.297 10.003,19.015 16.959,23.152c6.957,4.137 15.087,5.315 24.391,3.534c7.961,-1.524 14.59,-4.682 19.887,-9.474c5.297,-4.792 9.281,-10.601 11.951,-17.426c2.671,-6.825 4.31,-15.664 4.917,-26.519c0.607,-10.855 -0.118,-21.653 -2.174,-32.396c-0.221,-1.15 -0.599,-2.868 -1.136,-5.151c-3.6,9.24 -9.393,17.284 -17.379,24.132c-7.986,6.848 -17.206,11.273 -27.661,13.274c-17.456,3.341 -33.439,-0.162 -47.948,-10.509c-14.508,-10.348 -23.746,-25.881 -27.711,-46.598c-4.094,-21.389 -1.083,-39.813 9.033,-55.272c10.115,-15.458 24.669,-25.005 43.66,-28.64c13.716,-2.626 26.964,-1.334 39.743,3.876c12.78,5.21 23.427,14.084 31.942,26.623c8.515,12.539 15.251,31.757 20.208,57.654c5.159,26.952 6.342,48.973 3.548,66.063c-2.794,17.089 -9.172,30.913 -19.132,41.47c-9.96,10.557 -22.71,17.322 -38.248,20.296c-16.497,3.158 -30.85,1.158 -43.058,-6.001c-12.208,-7.159 -20.955,-18.833 -26.242,-35.022Zm88.216,-113.382c-2.845,-14.867 -9.06,-25.907 -18.644,-33.12c-9.583,-7.214 -19.938,-9.756 -31.064,-7.626c-11.51,2.203 -20.634,8.821 -27.371,19.855c-6.737,11.033 -8.674,24.032 -5.81,38.994c2.571,13.428 8.712,23.563 18.423,30.404c9.711,6.841 20.513,9.124 32.407,6.847c11.989,-2.295 21.041,-8.377 27.156,-18.248c6.115,-9.87 7.749,-22.239 4.903,-37.106Z" style="fill:#fff;fill-rule:nonzero;"/><path d="M7854.36,1406.22l26.58,1.047c0.427,15.239 3.661,26.728 9.701,34.467c6.041,7.739 14.209,12.502 24.504,14.29c12.219,2.121 23.274,-0.321 33.163,-7.326c9.889,-7.006 15.919,-16.762 18.091,-29.271c2.071,-11.931 -0.118,-22.445 -6.567,-31.544c-6.448,-9.098 -15.686,-14.692 -27.714,-16.78c-4.907,-0.852 -11.183,-0.95 -18.83,-0.295l6.845,-22.303c1.699,0.493 3.077,0.832 4.136,1.016c11.065,1.921 21.524,0.763 31.379,-3.473c9.854,-4.236 15.825,-12.368 17.913,-24.395c1.654,-9.526 -0.2,-17.975 -5.56,-25.348c-5.361,-7.374 -13.141,-11.946 -23.34,-13.716c-10.103,-1.754 -19.073,-0.041 -26.911,5.14c-7.837,5.181 -13.821,13.955 -17.95,26.321l-25.177,-9.128c6.199,-16.864 15.758,-29.106 28.677,-36.725c12.92,-7.619 27.75,-9.975 44.492,-7.069c11.546,2.005 21.748,6.328 30.606,12.971c8.857,6.642 15.116,14.692 18.777,24.149c3.661,9.457 4.656,18.996 2.986,28.618c-1.587,9.14 -5.485,17.037 -11.695,23.69c-6.21,6.653 -14.511,11.357 -24.901,14.113c12.007,5.058 20.685,12.735 26.034,23.03c5.35,10.295 6.838,22.274 4.466,35.937c-3.207,18.474 -12.661,32.964 -28.362,43.47c-15.7,10.506 -33.845,13.972 -54.436,10.397c-18.57,-3.224 -33.028,-11.433 -43.375,-24.628c-10.346,-13.195 -14.857,-28.746 -13.532,-46.655Z" style="fill:#fff;fill-rule:nonzero;"/><path d="M8029.9,1387.18c5.09,-24.875 11.747,-44.371 19.969,-58.487c8.221,-14.117 18.221,-24.257 29.998,-30.419c11.778,-6.162 25.32,-7.677 40.628,-4.544c11.29,2.31 20.727,6.609 28.312,12.896c7.585,6.287 13.275,14.28 17.072,23.978c3.797,9.698 6.016,21.018 6.657,33.958c0.641,12.94 -1.172,29.838 -5.441,50.695c-5.051,24.684 -11.664,44.089 -19.838,58.215c-8.174,14.127 -18.155,24.295 -29.942,30.505c-11.787,6.211 -25.382,7.739 -40.786,4.587c-20.282,-4.151 -34.724,-14.682 -43.324,-31.593c-10.29,-20.348 -11.391,-50.278 -3.305,-89.791Zm26.549,5.434c-7.068,34.538 -7.73,58.35 -1.985,71.438c5.745,13.087 14.549,20.845 26.412,23.273c11.864,2.428 23.012,-1.272 33.446,-11.098c10.434,-9.826 19.175,-31.961 26.224,-66.403c7.088,-34.634 7.754,-58.471 2,-71.51c-5.754,-13.04 -14.659,-20.793 -26.714,-23.26c-11.863,-2.428 -22.363,0.657 -31.499,9.253c-11.521,11 -20.816,33.768 -27.884,68.307Z" style="fill:#fff;fill-rule:nonzero;"/><path d="M8183.89,1461.7l5.946,-25.839l78.943,18.165l-5.946,25.838l-78.943,-18.164Z" style="fill:#fff;fill-rule:nonzero;"/><path d="M8283.72,1492.55l26.417,3.12c-0.765,15.226 1.561,26.933 6.979,35.12c5.417,8.187 13.188,13.574 23.312,16.16c12.017,3.07 23.228,1.499 33.634,-4.712c10.406,-6.212 17.18,-15.468 20.322,-27.768c2.997,-11.733 1.637,-22.386 -4.082,-31.961c-5.718,-9.574 -14.491,-15.872 -26.318,-18.893c-4.825,-1.233 -11.075,-1.822 -18.75,-1.766l8.567,-21.7c1.655,0.625 3.003,1.07 4.044,1.336c10.881,2.779 21.399,2.442 31.554,-1.011c10.155,-3.454 16.743,-11.094 19.764,-22.921c2.393,-9.367 1.205,-17.936 -3.563,-25.705c-4.768,-7.77 -12.167,-12.936 -22.197,-15.498c-9.935,-2.537 -19.011,-1.53 -27.23,3.023c-8.218,4.553 -14.869,12.832 -19.952,24.838l-24.386,-11.067c7.497,-16.329 17.983,-27.786 31.458,-34.372c13.476,-6.587 28.445,-7.777 44.908,-3.572c11.355,2.901 21.188,8.008 29.499,15.322c8.312,7.314 13.923,15.828 16.834,25.542c2.911,9.714 3.158,19.302 0.741,28.764c-2.296,8.989 -6.8,16.557 -13.511,22.704c-6.711,6.148 -15.353,10.189 -25.926,12.125c11.575,5.98 19.627,14.311 24.155,24.993c4.528,10.682 5.077,22.74 1.644,36.176c-4.64,18.167 -15.197,31.874 -31.671,41.122c-16.473,9.247 -34.834,11.285 -55.082,6.112c-18.261,-4.665 -32.034,-13.978 -41.318,-27.941c-9.284,-13.963 -12.566,-29.819 -9.846,-47.57Z" style="fill:#fff;fill-rule:nonzero;"/><path d="M8512.41,1612.5l14.179,-49.422l-89.551,-25.692l6.665,-23.233l132.575,-106.739l20.698,5.939l-38.376,133.764l27.879,7.998l-6.666,23.233l-27.879,-7.999l-14.179,49.422l-25.345,-7.271Zm20.845,-72.655l26.702,-93.071l-91.331,74.529l64.629,18.542Z" style="fill:#fff;fill-rule:nonzero;"/><path d="M8605.54,1640.47l8.963,-28.66l28.661,8.963l-8.964,28.66l-28.66,-8.963Z" style="fill:#fff;fill-rule:nonzero;"/><path d="M8690.49,1614.91l24.76,5.885c-1.775,11.975 -0.653,21.476 3.366,28.501c4.019,7.026 10.515,12.053 19.491,15.083c7.679,2.593 15.004,3.107 21.974,1.543c6.97,-1.564 13.297,-4.658 18.981,-9.284c5.685,-4.627 11.463,-11.514 17.334,-20.664c5.872,-9.149 10.557,-18.905 14.055,-29.268c0.375,-1.111 0.891,-2.792 1.548,-5.044c-7.683,6.271 -16.685,10.421 -27.007,12.451c-10.323,2.029 -20.526,1.342 -30.612,-2.063c-16.84,-5.684 -29.027,-16.601 -36.562,-32.75c-7.536,-16.15 -7.93,-34.217 -1.183,-54.203c6.965,-20.633 18.656,-35.188 35.071,-43.664c16.415,-8.476 33.783,-9.622 52.103,-3.437c13.231,4.466 24.126,12.112 32.686,22.938c8.559,10.826 13.458,23.792 14.698,38.898c1.239,15.106 -2.358,35.15 -10.792,60.132c-8.777,26 -18.587,45.75 -29.432,59.25c-10.845,13.501 -23.201,22.394 -37.068,26.68c-13.866,4.286 -28.295,3.899 -43.284,-1.161c-15.914,-5.373 -27.423,-14.179 -34.525,-26.42c-7.103,-12.241 -8.97,-26.709 -5.602,-43.403Zm132.602,-55.266c4.841,-14.342 4.866,-27.011 0.075,-38.008c-4.791,-10.997 -12.553,-18.307 -23.286,-21.93c-11.103,-3.748 -22.303,-2.479 -33.598,3.809c-11.296,6.288 -19.381,16.649 -24.253,31.083c-4.373,12.953 -4.017,24.798 1.069,35.533c5.085,10.736 13.364,18.04 24.838,21.913c11.565,3.905 22.439,3.066 32.62,-2.516c10.182,-5.581 17.693,-15.543 22.535,-29.884Z" style="fill:#fff;fill-rule:nonzero;"/><path d="M10522.8,2616.23l22.322,14.467c-7.411,13.322 -10.495,24.852 -9.251,34.591c1.244,9.738 5.837,18.003 13.777,24.795c9.425,8.062 20.178,11.605 32.257,10.628c12.08,-0.976 22.245,-6.288 30.497,-15.936c7.872,-9.202 11.357,-19.361 10.455,-30.477c-0.901,-11.115 -5.99,-20.64 -15.266,-28.575c-3.785,-3.237 -9.132,-6.526 -16.042,-9.866l17.271,-15.684c1.208,1.291 2.221,2.286 3.037,2.984c8.535,7.3 18.12,11.643 28.756,13.03c10.636,1.388 19.922,-2.557 27.856,-11.833c6.285,-7.347 9.004,-15.559 8.157,-24.636c-0.846,-9.077 -5.202,-16.979 -13.069,-23.708c-7.792,-6.665 -16.38,-9.77 -25.764,-9.316c-9.385,0.455 -19.008,4.945 -28.872,13.472l-16.99,-20.701c13.938,-11.338 28.407,-16.985 43.406,-16.943c14.999,0.043 28.954,5.587 41.867,16.632c8.906,7.617 15.471,16.543 19.698,26.776c4.226,10.233 5.5,20.35 3.82,30.351c-1.679,10.001 -5.692,18.712 -12.04,26.133c-6.03,7.05 -13.413,11.851 -22.149,14.402c-8.736,2.551 -18.275,2.359 -28.616,-0.574c7.743,10.478 11.287,21.509 10.632,33.092c-0.656,11.584 -5.49,22.644 -14.504,33.182c-12.188,14.249 -27.713,21.884 -46.577,22.904c-18.864,1.02 -36.237,-5.261 -52.118,-18.846c-14.323,-12.251 -22.565,-26.69 -24.728,-43.318c-2.162,-16.628 1.898,-32.303 12.178,-47.026Z" style="fill:#fff;fill-rule:nonzero;"/><path d="M10650.3,2726.38l22.05,16.905c-7.557,11.346 -10.858,22.043 -9.903,32.091c0.955,10.048 5.332,18.622 13.13,25.723c9.388,8.547 20.552,12.24 33.494,11.081c12.942,-1.16 24.738,-7.588 35.389,-19.286c10.125,-11.121 14.99,-22.738 14.595,-34.851c-0.395,-12.114 -5.647,-22.773 -15.756,-31.977c-6.283,-5.72 -13.249,-9.455 -20.901,-11.205c-7.652,-1.75 -14.993,-1.665 -22.023,0.254l-16.136,-19.049l89.64,-67.558l78.962,71.893l-16.962,18.63l-63.365,-57.691l-47.412,34.885c15.58,2.035 28.606,7.819 39.076,17.352c13.864,12.623 21.19,28.076 21.978,46.358c0.788,18.283 -5.689,34.97 -19.43,50.062c-13.083,14.369 -28.579,22.976 -46.489,25.82c-21.884,3.584 -41.636,-2.646 -59.255,-18.688c-14.442,-13.149 -22.549,-27.925 -24.32,-44.33c-1.771,-16.404 2.775,-31.877 13.638,-46.419Z" style="fill:#fff;fill-rule:nonzero;"/><path d="M10777.6,2832.11l18.326,-19.16l58.54,55.991l-18.327,19.161l-58.539,-55.992Z" style="fill:#fff;fill-rule:nonzero;"/><path d="M10847.8,2909.94l21.093,16.207c-8.454,12.686 -12.451,23.933 -11.99,33.74c0.461,9.806 4.377,18.413 11.749,25.818c8.749,8.79 19.183,13.182 31.302,13.175c12.119,-0.006 22.677,-4.487 31.675,-13.444c8.583,-8.542 12.869,-18.39 12.861,-29.542c-0.009,-11.152 -4.319,-21.054 -12.931,-29.706c-3.514,-3.53 -8.581,-7.236 -15.201,-11.118l18.47,-14.251c1.102,1.383 2.032,2.456 2.79,3.217c7.922,7.96 17.129,13.056 27.62,15.29c10.491,2.234 20.063,-0.955 28.714,-9.567c6.852,-6.82 10.22,-14.788 10.103,-23.903c-0.117,-9.116 -3.827,-17.342 -11.13,-24.678c-7.234,-7.267 -15.546,-11.05 -24.937,-11.348c-9.39,-0.298 -19.343,3.408 -29.857,11.118l-15.279,-21.995c14.801,-10.185 29.675,-14.657 44.623,-13.414c14.947,1.243 28.414,7.886 40.402,19.929c8.267,8.306 14.098,17.728 17.491,28.266c3.394,10.539 3.854,20.725 1.38,30.56c-2.474,9.834 -7.172,18.196 -14.093,25.085c-6.575,6.545 -14.319,10.74 -23.231,12.584c-8.912,1.843 -18.405,0.889 -28.478,-2.863c6.88,11.065 9.529,22.344 7.949,33.837c-1.58,11.494 -7.284,22.133 -17.113,31.915c-13.288,13.228 -29.375,19.596 -48.26,19.103c-18.885,-0.492 -35.699,-8.144 -50.443,-22.956c-13.296,-13.358 -20.357,-28.411 -21.181,-45.158c-0.825,-16.747 4.476,-32.048 15.902,-45.901Z" style="fill:#fff;fill-rule:nonzero;"/><path d="M10963.8,3037.16l19.029,16.9c-7.231,9.71 -10.738,18.61 -10.522,26.701c0.217,8.091 3.561,15.594 10.034,22.51c5.539,5.918 11.749,9.837 18.629,11.757c6.88,1.921 13.918,2.188 21.115,0.802c7.197,-1.385 15.546,-4.719 25.048,-10.002c9.502,-5.282 18.246,-11.66 26.231,-19.134c0.856,-0.801 2.106,-2.038 3.75,-3.711c-9.735,1.889 -19.63,1.286 -29.684,-1.81c-10.054,-3.096 -18.718,-8.53 -25.991,-16.302c-12.146,-12.976 -17.717,-28.36 -16.714,-46.153c1.003,-17.792 9.204,-33.895 24.605,-48.31c15.899,-14.881 33.085,-22.172 51.557,-21.872c18.472,0.3 34.314,7.508 47.528,21.625c9.542,10.196 15.523,22.087 17.941,35.675c2.418,13.587 0.599,27.328 -5.457,41.222c-6.056,13.894 -18.709,29.851 -37.96,47.869c-20.034,18.752 -38.023,31.509 -53.964,38.271c-15.942,6.762 -31.035,8.75 -45.28,5.964c-14.244,-2.785 -26.771,-9.953 -37.582,-21.504c-11.478,-12.263 -17.45,-25.467 -17.915,-39.611c-0.465,-14.145 4.736,-27.774 15.602,-40.887Zm142.969,14.055c11.051,-10.344 17.068,-21.493 18.05,-33.448c0.983,-11.955 -2.396,-22.067 -10.137,-30.338c-8.008,-8.556 -18.476,-12.736 -31.402,-12.542c-12.927,0.194 -24.951,5.497 -36.074,15.907c-9.981,9.343 -15.272,19.946 -15.871,31.81c-0.6,11.864 3.238,22.216 11.513,31.057c8.341,8.912 18.317,13.319 29.928,13.219c11.611,-0.1 22.941,-5.321 33.993,-15.665Z" style="fill:#fff;fill-rule:nonzero;"/><path d="M11048.1,3201.55l22.394,-20.007l20.007,22.394l-22.394,20.007l-20.007,-22.394Z" style="fill:#fff;fill-rule:nonzero;"/><path d="M11134.4,3223.48l18.231,17.757c-7.669,9.368 -11.582,18.097 -11.738,26.189c-0.157,8.093 2.839,15.742 8.987,22.948c5.261,6.167 11.283,10.367 18.068,12.602c6.784,2.235 13.803,2.826 21.056,1.773c7.253,-1.054 15.747,-4 25.482,-8.839c9.735,-4.839 18.763,-10.809 27.083,-17.907c0.892,-0.761 2.198,-1.939 3.917,-3.534c-9.812,1.439 -19.668,0.38 -29.569,-3.175c-9.901,-3.555 -18.306,-9.382 -25.214,-17.48c-11.536,-13.521 -16.393,-29.146 -14.573,-46.873c1.821,-17.727 10.755,-33.436 26.802,-47.127c16.567,-14.134 34.07,-20.627 52.509,-19.477c18.438,1.15 33.932,9.079 46.482,23.789c9.064,10.624 14.491,22.778 16.281,36.462c1.79,13.684 -0.659,27.327 -7.348,40.928c-6.689,13.601 -20.062,28.958 -40.122,46.071c-20.876,17.811 -39.432,29.727 -55.668,35.748c-16.236,6.021 -31.405,7.313 -45.506,3.875c-14.101,-3.438 -26.285,-11.175 -36.553,-23.211c-10.902,-12.778 -16.26,-26.243 -16.073,-40.394c0.186,-14.151 6.008,-27.526 17.466,-40.125Zm142.171,20.618c11.515,-9.824 18.039,-20.685 19.57,-32.582c1.532,-11.897 -1.378,-22.154 -8.731,-30.772c-7.606,-8.915 -17.869,-13.573 -30.791,-13.974c-12.922,-0.4 -25.178,4.343 -36.767,14.231c-10.401,8.873 -16.174,19.222 -17.319,31.046c-1.145,11.823 2.212,22.341 10.072,31.554c7.923,9.286 17.685,14.147 29.288,14.581c11.603,0.435 23.162,-4.26 34.678,-14.084Z" style="fill:#fff;fill-rule:nonzero;"/><path d="M12167.1,5121.05l48.708,-16.467l-29.837,-88.257l22.897,-7.741l163.216,48.269l6.896,20.399l-131.83,44.568l9.289,27.476l-22.897,7.741l-9.289,-27.476l-48.708,16.466l-8.445,-24.978Zm71.605,-24.208l91.726,-31.01l-113.259,-32.684l21.533,63.694Z" style="fill:#fff;fill-rule:nonzero;"/><path d="M12294.2,5167.98c24.298,-7.369 44.611,-10.799 60.94,-10.292c16.329,0.508 30.006,4.473 41.033,11.895c11.027,7.422 18.808,18.609 23.343,33.562c3.344,11.027 4.058,21.373 2.141,31.036c-1.917,9.664 -6.235,18.474 -12.955,26.431c-6.721,7.957 -15.618,15.298 -26.691,22.024c-11.074,6.725 -26.797,13.178 -47.169,19.356c-24.111,7.312 -44.324,10.737 -60.639,10.276c-16.314,-0.46 -30.008,-4.395 -41.082,-11.803c-11.073,-7.408 -18.892,-18.634 -23.455,-33.68c-6.008,-19.812 -3.624,-37.526 7.151,-53.142c12.993,-18.737 38.787,-33.958 77.383,-45.663Zm7.865,25.933c-33.737,10.231 -54.991,20.989 -63.764,32.272c-8.773,11.284 -11.402,22.72 -7.888,34.308c3.514,11.588 12.076,19.63 25.685,24.126c13.609,4.496 37.236,1.642 70.879,-8.56c33.83,-10.26 55.108,-21.024 63.834,-32.294c8.726,-11.269 11.304,-22.791 7.733,-34.567c-3.514,-11.588 -11.226,-19.352 -23.136,-23.291c-15.159,-4.894 -39.606,-2.225 -73.343,8.006Z" style="fill:#fff;fill-rule:nonzero;"/><path d="M12301.9,5338.58l25.556,-7.062l21.577,78.079l-25.556,7.062l-21.577,-78.079Z" style="fill:#fff;fill-rule:nonzero;"/><path d="M12287.9,5537.14l49.869,-12.518l-22.682,-90.361l23.442,-5.885l158.832,61.169l5.243,20.885l-134.973,33.881l7.061,28.131l-23.442,5.885l-7.062,-28.132l-49.869,12.518l-6.419,-25.573Zm73.312,-18.403l93.912,-23.574l-110.282,-41.639l16.37,65.213Z" style="fill:#fff;fill-rule:nonzero;"/><path d="M12356.9,5610.56l7.677,24.264c-11.185,4.632 -18.758,10.477 -22.719,17.535c-3.962,7.058 -4.935,15.215 -2.922,24.472c1.723,7.92 5.047,14.468 9.97,19.643c4.924,5.175 10.831,9.012 17.721,11.51c6.889,2.499 15.767,3.916 26.634,4.25c10.866,0.335 21.643,-0.661 32.33,-2.986c1.146,-0.249 2.853,-0.67 5.122,-1.264c-9.327,-3.368 -17.514,-8.957 -24.56,-16.769c-7.047,-7.811 -11.701,-16.918 -13.964,-27.319c-3.778,-17.367 -0.677,-33.432 9.303,-48.196c9.98,-14.764 25.276,-24.388 45.888,-28.872c21.28,-4.629 39.773,-2.081 55.481,7.643c15.707,9.725 25.616,24.035 29.727,42.929c2.968,13.646 2.009,26.922 -2.879,39.828c-4.887,12.906 -13.492,23.773 -25.813,32.599c-12.321,8.827 -31.364,16.043 -57.129,21.648c-26.814,5.834 -48.798,7.568 -65.953,5.204c-17.154,-2.364 -31.133,-8.393 -41.937,-18.085c-10.803,-9.693 -17.886,-22.269 -21.249,-37.727c-3.571,-16.413 -1.931,-30.812 4.919,-43.195c6.85,-12.384 18.301,-21.421 34.353,-27.112Zm115.559,85.344c14.791,-3.218 25.671,-9.707 32.642,-19.469c6.971,-9.762 9.253,-20.177 6.845,-31.246c-2.492,-11.451 -9.337,-20.406 -20.536,-26.864c-11.199,-6.458 -24.242,-8.068 -39.128,-4.83c-13.359,2.907 -23.337,9.3 -29.932,19.179c-6.596,9.88 -8.606,20.736 -6.032,32.569c2.595,11.928 8.903,20.825 18.924,26.69c10.02,5.865 22.426,7.189 37.217,3.971Z" style="fill:#fff;fill-rule:nonzero;"/><path d="M12344.9,5794.48l29.482,-5.703l5.704,29.482l-29.483,5.704l-5.703,-29.483Z" style="fill:#fff;fill-rule:nonzero;"/><path d="M12407.8,5857.46l6.553,24.592c-11.386,4.113 -19.22,9.604 -23.501,16.472c-4.282,6.869 -5.63,14.972 -4.044,24.311c1.357,7.991 4.376,14.685 9.056,20.081c4.681,5.396 10.405,9.5 17.173,12.313c6.767,2.813 15.571,4.636 26.41,5.47c10.84,0.834 21.651,0.335 32.434,-1.496c1.155,-0.196 2.88,-0.539 5.175,-1.027c-9.163,-3.793 -17.084,-9.753 -23.764,-17.881c-6.68,-8.127 -10.911,-17.438 -12.693,-27.932c-2.975,-17.522 0.861,-33.428 11.51,-47.718c10.648,-14.289 26.371,-23.199 47.167,-26.731c21.469,-3.646 39.826,-0.25 55.07,10.187c15.244,10.436 24.485,25.186 27.722,44.249c2.338,13.768 0.769,26.986 -4.707,39.654c-5.476,12.668 -14.571,23.127 -27.285,31.378c-12.714,8.251 -32.069,14.584 -58.064,18.998c-27.054,4.595 -49.094,5.316 -66.122,2.166c-17.028,-3.151 -30.715,-9.816 -41.061,-19.995c-10.346,-10.179 -16.844,-23.067 -19.493,-38.664c-2.812,-16.56 -0.512,-30.867 6.901,-42.923c7.412,-12.056 19.266,-20.557 35.563,-25.504Zm111.512,90.568c14.923,-2.534 26.091,-8.517 33.504,-17.948c7.412,-9.43 10.17,-19.73 8.273,-30.898c-1.962,-11.553 -8.388,-20.813 -19.278,-27.78c-10.891,-6.966 -23.846,-9.174 -38.865,-6.624c-13.479,2.289 -23.74,8.217 -30.782,17.783c-7.043,9.566 -9.551,20.318 -7.523,32.257c2.043,12.035 7.936,21.212 17.676,27.532c9.741,6.319 22.072,8.212 36.995,5.678Z" style="fill:#fff;fill-rule:nonzero;"/></g><g><path d="M917.711,6124.5l-283.49,-40.212l15.086,-106.357c3.072,-21.658 8.405,-38.623 15.998,-50.895c7.592,-12.271 17.877,-21.267 30.853,-26.989c12.977,-5.721 25.975,-7.658 38.996,-5.811c12.118,1.719 23.061,6.624 32.829,14.717c9.767,8.093 16.997,19.244 21.688,33.456c7.46,-16.433 17.903,-28.399 31.329,-35.898c13.425,-7.499 28.389,-10.078 44.891,-7.737c13.278,1.884 25.224,6.438 35.838,13.665c10.614,7.226 18.43,15.403 23.447,24.532c5.018,9.128 8.224,20.137 9.618,33.025c1.394,12.889 0.81,28.358 -1.75,46.406l-15.333,108.098Zm-159.049,-60.83l8.695,-61.301c2.359,-16.63 2.955,-28.711 1.787,-36.241c-1.483,-9.942 -5.169,-17.797 -11.058,-23.564c-5.889,-5.767 -13.797,-9.354 -23.723,-10.762c-9.411,-1.335 -18.014,-0.254 -25.809,3.243c-7.795,3.497 -13.608,9.248 -17.44,17.253c-3.831,8.005 -7.192,22.192 -10.081,42.561l-8.037,56.659l85.666,12.152Zm130.916,18.569l10.012,-70.582c1.719,-12.119 2.475,-20.691 2.267,-25.718c-0.322,-8.857 -1.876,-16.442 -4.663,-22.755c-2.787,-6.314 -7.363,-11.829 -13.73,-16.546c-6.367,-4.717 -14.063,-7.715 -23.087,-8.995c-10.571,-1.5 -20.14,-0.095 -28.708,4.213c-8.568,4.308 -15.112,11.04 -19.633,20.197c-4.52,9.156 -8.061,22.759 -10.621,40.807l-9.299,65.555l97.462,13.824Z" style="fill:#fff;fill-rule:nonzero;"/><path d="M955.226,5725.72c8.557,14.792 14,28.521 16.327,41.186c2.327,12.666 2.255,25.788 -0.216,39.367c-4.08,22.418 -12.692,38.652 -25.837,48.7c-13.144,10.049 -28.235,13.523 -45.273,10.422c-9.992,-1.819 -18.706,-5.753 -26.141,-11.805c-7.435,-6.051 -12.98,-13.215 -16.636,-21.49c-3.655,-8.275 -5.925,-17.258 -6.808,-26.947c-0.558,-7.116 -0.423,-17.679 0.407,-31.69c1.751,-28.532 1.522,-49.816 -0.689,-63.85c-4.716,-0.991 -7.715,-1.602 -8.996,-1.836c-14.091,-2.564 -24.614,-1.104 -31.568,4.38c-9.423,7.417 -15.719,19.837 -18.89,37.259c-2.961,16.269 -2.296,28.798 1.994,37.585c4.29,8.788 13.335,16.357 27.135,22.706l-10.767,32.98c-13.916,-5.709 -24.685,-12.896 -32.306,-21.562c-7.621,-8.666 -12.621,-20.098 -15,-34.295c-2.379,-14.197 -1.972,-30.071 1.222,-47.621c3.17,-17.422 7.796,-31.204 13.877,-41.347c6.081,-10.143 12.695,-17.211 19.84,-21.205c7.146,-3.993 15.645,-6.152 25.498,-6.477c6.102,-0.08 16.84,1.278 32.212,4.076l46.118,8.393c32.154,5.852 52.625,8.816 61.412,8.893c8.787,0.077 17.484,-1.351 26.091,-4.284l-6.575,36.125c-7.826,2.281 -16.637,3.06 -26.431,2.337Zm-77.772,-11.176c2.84,13.487 3.768,33.111 2.786,58.872c-0.538,14.592 -0.063,25.068 1.427,31.427c1.49,6.359 4.409,11.589 8.758,15.689c4.35,4.1 9.535,6.698 15.555,7.794c9.224,1.679 17.546,-0.413 24.965,-6.276c7.42,-5.863 12.353,-15.519 14.801,-28.97c2.425,-13.323 1.667,-25.703 -2.273,-37.14c-3.941,-11.438 -10.528,-20.511 -19.762,-27.221c-7.139,-5.137 -18.33,-9.093 -33.574,-11.867l-12.683,-2.308Z" style="fill:#fff;fill-rule:nonzero;"/><path d="M756.959,5595.95l-39.991,-8.185l7.05,-34.442l39.991,8.185l-7.05,34.442Zm310.426,108.992l-27.944,-12.498c3.196,-6.523 5.199,-11.761 6.008,-15.716c1.436,-7.016 0.178,-12.722 -3.773,-17.12c-3.951,-4.397 -15.238,-8.501 -33.863,-12.313l-213.541,-43.708l7.049,-34.442l214.307,43.864c25.003,5.118 41.749,11.934 50.24,20.451c11.059,10.902 14.618,25.985 10.675,45.247c-1.906,9.312 -4.958,18.057 -9.158,26.235Z" style="fill:#fff;fill-rule:nonzero;"/><path d="M911.505,5547.05c-37.392,-8.791 -62.643,-25.697 -75.755,-50.716c-10.874,-20.881 -13.375,-43.807 -7.504,-68.777c6.526,-27.759 20.955,-48.309 43.287,-61.651c22.331,-13.342 49.531,-16.244 81.599,-8.704c25.984,6.11 45.507,14.813 58.567,26.11c13.061,11.296 21.96,25.36 26.697,42.191c4.737,16.83 5.034,34.055 0.892,51.673c-6.646,28.266 -21.08,48.982 -43.303,62.149c-22.224,13.167 -50.383,15.742 -84.48,7.725Zm8.27,-35.174c25.858,6.08 46.545,4.992 62.063,-3.264c15.517,-8.256 25.288,-20.94 29.311,-38.052c3.993,-16.985 0.852,-32.637 -9.424,-46.958c-10.277,-14.321 -28.661,-24.595 -55.152,-30.824c-24.97,-5.871 -45.221,-4.646 -60.754,3.673c-15.532,8.32 -25.28,20.908 -29.244,37.766c-4.023,17.112 -0.96,32.813 9.19,47.104c10.149,14.291 28.153,24.476 54.01,30.555Z" style="fill:#fff;fill-rule:nonzero;"/><path d="M1172.37,5256.79l-275.227,-81.054l9.049,-30.726l25.855,7.614c-7.984,-10.224 -13.162,-20.64 -15.536,-31.248c-2.373,-10.607 -1.647,-22.406 2.179,-35.396c5.002,-16.987 13.788,-30.689 26.357,-41.104c12.569,-10.415 27.791,-16.587 45.666,-18.517c17.875,-1.93 36.305,-0.1 55.29,5.491c20.36,5.996 37.613,15.048 51.762,27.155c14.148,12.107 23.512,26.403 28.091,42.886c4.579,16.483 4.607,32.407 0.082,47.77c-3.31,11.241 -8.654,20.628 -16.03,28.161c-7.377,7.533 -15.533,13.106 -24.47,16.718l96.864,28.526l-9.932,33.724Zm-165.623,-81.963c25.606,7.54 46.055,7.93 61.349,1.167c15.294,-6.762 25.111,-17.512 29.451,-32.251c4.415,-14.988 1.855,-29.689 -7.677,-44.102c-9.533,-14.413 -27.602,-25.537 -54.207,-33.372c-25.355,-7.467 -45.876,-7.844 -61.563,-1.129c-15.687,6.714 -25.664,17.316 -29.931,31.804c-4.23,14.364 -1.259,29.051 8.912,44.059c10.172,15.008 28.061,26.283 53.666,33.824Z" style="fill:#fff;fill-rule:nonzero;"/><path d="M1141.23,4865.6l15.748,-33.044c18.324,12.146 30.595,27.422 36.813,45.827c6.217,18.406 5.518,39.035 -2.099,61.887c-9.593,28.782 -26.063,48.65 -49.409,59.603c-23.346,10.953 -51.016,11.098 -83.01,0.435c-33.105,-11.035 -55.958,-28.122 -68.558,-51.262c-12.601,-23.141 -14.372,-48.299 -5.314,-75.475c8.77,-26.311 24.89,-44.82 48.359,-55.526c23.47,-10.706 51.449,-10.645 83.937,0.183c1.976,0.659 4.92,1.709 8.832,3.15l-48.913,146.75c22.029,5.97 40.62,5.373 55.772,-1.792c15.153,-7.165 25.467,-18.962 30.943,-35.391c4.076,-12.229 4.343,-23.738 0.802,-34.526c-3.542,-10.788 -11.509,-21.061 -23.903,-30.819Zm-90.419,91.535l36.622,-109.877c-17.046,-4.035 -30.861,-3.973 -41.443,0.186c-16.387,6.341 -27.402,17.974 -33.042,34.897c-5.106,15.317 -4.271,29.904 2.502,43.759c6.774,13.855 18.561,24.201 35.361,31.035Z" style="fill:#fff;fill-rule:nonzero;"/><path d="M1168.34,4801.94l7,-34.49c13.738,3.029 25.641,1.658 35.708,-4.113c10.066,-5.77 17.893,-16.16 23.478,-31.17c5.632,-15.132 6.728,-27.506 3.291,-37.121c-3.438,-9.616 -9.306,-15.967 -17.604,-19.055c-7.444,-2.771 -14.505,-1.717 -21.183,3.162c-4.609,3.425 -12.509,13.267 -23.7,29.525c-15.094,21.892 -26.605,36.677 -34.533,44.354c-7.928,7.678 -16.725,12.463 -26.39,14.354c-9.665,1.891 -19.256,1.065 -28.775,-2.477c-8.664,-3.224 -15.95,-8.193 -21.857,-14.907c-5.907,-6.713 -10.029,-14.395 -12.368,-23.046c-1.875,-6.533 -2.479,-14.711 -1.81,-24.535c0.669,-9.824 2.888,-19.8 6.657,-29.928c5.677,-15.254 12.858,-27.83 21.542,-37.727c8.685,-9.897 17.802,-16.195 27.35,-18.894c9.549,-2.698 20.994,-2.746 34.335,-0.143l-7.596,33.851c-10.551,-2.259 -19.94,-0.925 -28.164,4.003c-8.225,4.928 -14.722,13.798 -19.49,26.612c-5.631,15.132 -7.149,26.863 -4.552,35.192c2.596,8.33 7.25,13.744 13.962,16.241c4.271,1.59 8.615,1.678 13.031,0.265c4.538,-1.368 9.033,-4.488 13.486,-9.361c2.447,-2.841 8.864,-11.498 19.252,-25.971c14.897,-20.992 26.043,-35.357 33.438,-43.094c7.395,-7.738 15.852,-12.822 25.37,-15.254c9.519,-2.432 19.892,-1.559 31.119,2.619c10.983,4.088 20.133,11.14 27.45,21.157c7.318,10.017 11.383,22.054 12.195,36.11c0.813,14.057 -1.62,28.712 -7.296,43.966c-9.401,25.261 -21.812,42.559 -37.234,51.894c-15.422,9.335 -34.126,11.995 -56.112,7.981Z" style="fill:#fff;fill-rule:nonzero;"/><path d="M1200.79,4595.94c-35.513,-14.638 -57.748,-35.351 -66.705,-62.14c-7.407,-22.348 -6.223,-45.379 3.552,-69.095c10.867,-26.364 28.387,-44.352 52.559,-53.965c24.172,-9.612 51.486,-8.142 81.943,4.412c24.679,10.172 42.565,21.875 53.658,35.109c11.093,13.234 17.637,28.536 19.632,45.906c1.994,17.371 -0.457,34.423 -7.354,51.156c-11.065,26.845 -28.617,44.996 -52.654,54.453c-24.038,9.457 -52.248,7.512 -84.631,-5.836Zm13.769,-33.406c24.559,10.122 45.155,12.345 61.79,6.667c16.635,-5.678 28.302,-16.642 35.001,-32.894c6.649,-16.131 6.042,-32.085 -1.821,-47.86c-7.863,-15.775 -24.374,-28.848 -49.534,-39.219c-23.716,-9.775 -43.903,-11.794 -60.563,-6.056c-16.66,5.738 -28.29,16.612 -34.889,32.623c-6.699,16.252 -6.177,32.241 1.566,47.967c7.742,15.725 23.892,28.649 48.45,38.772Z" style="fill:#fff;fill-rule:nonzero;"/><path d="M2189.78,3085.1l-220.85,-182.233l24.737,-29.979l269.112,27.078l-173.395,-143.077l23.121,-28.021l220.85,182.234l-24.737,29.979l-269.263,-27.202l173.546,143.201l-23.121,28.02Z" style="fill:#fff;fill-rule:nonzero;"/><path d="M2286.47,2807.16c-28.563,-25.683 -42.58,-52.645 -42.051,-80.886c0.502,-23.538 9.328,-44.844 26.479,-63.919c19.066,-21.204 41.597,-32.289 67.592,-33.254c25.996,-0.966 51.242,9.565 75.738,31.591c19.849,17.847 32.785,34.863 38.807,51.047c6.023,16.184 7.066,32.794 3.13,49.83c-3.936,17.035 -11.954,32.282 -24.056,45.741c-19.414,21.591 -42.029,32.819 -67.846,33.683c-25.816,0.864 -51.747,-10.414 -77.793,-33.833Zm24.159,-26.869c19.752,17.76 38.416,26.75 55.992,26.969c17.576,0.22 32.24,-6.206 43.994,-19.277c11.666,-12.975 16.435,-28.211 14.307,-45.708c-2.128,-17.498 -13.31,-35.344 -33.546,-53.539c-19.074,-17.151 -37.421,-25.812 -55.04,-25.983c-17.62,-0.171 -32.219,6.183 -43.798,19.06c-11.753,13.071 -16.614,28.312 -14.583,45.723c2.031,17.41 12.922,34.995 32.674,52.755Z" style="fill:#fff;fill-rule:nonzero;"/><path d="M2522.14,2702.16l-149.678,-143.598l21.905,-22.833l22.691,21.77c-5.028,-16.012 -6.868,-28.107 -5.518,-36.285c1.35,-8.178 4.865,-15.226 10.544,-21.146c8.203,-8.55 19.266,-14.627 33.189,-18.231l15.154,31.319c-9.614,2.686 -17.396,7.129 -23.345,13.331c-5.319,5.543 -8.429,12.123 -9.33,19.739c-0.901,7.617 0.707,15.204 4.823,22.762c6.316,11.473 14.83,22.347 25.541,32.623l78.362,75.18l-24.338,25.369Z" style="fill:#fff;fill-rule:nonzero;"/><path d="M2613.66,2605.11l-144.404,-148.901l22.574,-21.891l20.26,20.891c-2.397,-11.824 -1.87,-23.717 1.583,-35.681c3.452,-11.964 10.132,-22.75 20.04,-32.359c11.03,-10.696 22.294,-17.176 33.793,-19.44c11.499,-2.264 22.686,-0.688 33.561,4.727c-5.083,-28.807 1.816,-52.367 20.697,-70.678c14.769,-14.322 30.091,-21.247 45.968,-20.773c15.877,0.474 32.065,9.217 48.563,26.229l99.124,102.211l-25.097,24.339l-90.966,-93.799c-9.79,-10.095 -17.656,-16.569 -23.598,-19.423c-5.941,-2.853 -12.376,-3.55 -19.305,-2.091c-6.928,1.459 -13.29,4.999 -19.085,10.619c-10.469,10.152 -15.786,22.065 -15.949,35.736c-0.164,13.672 7.188,28.172 22.054,43.502l83.895,86.508l-25.237,24.475l-93.821,-96.743c-10.878,-11.217 -21.093,-17.635 -30.645,-19.255c-9.551,-1.62 -19.001,2.103 -28.348,11.168c-7.104,6.889 -11.857,15.127 -14.26,24.712c-2.403,9.586 -1.47,19.292 2.799,29.118c4.269,9.826 12.976,21.516 26.12,35.07l74.921,77.254l-25.237,24.475Z" style="fill:#fff;fill-rule:nonzero;"/><path d="M2939.08,2266.02c-2.418,16.917 -6.627,31.073 -12.627,42.467c-6.001,11.394 -14.169,21.664 -24.506,30.81c-17.066,15.099 -33.87,22.535 -50.414,22.308c-16.544,-0.227 -30.554,-6.826 -42.029,-19.795c-6.73,-7.607 -11.147,-16.086 -13.25,-25.439c-2.103,-9.353 -2.034,-18.412 0.208,-27.176c2.243,-8.765 6.012,-17.228 11.307,-25.391c3.961,-5.938 10.597,-14.157 19.91,-24.657c19.016,-21.345 31.992,-38.216 38.931,-50.614c-3.095,-3.694 -5.074,-6.029 -5.937,-7.004c-9.491,-10.727 -18.665,-16.084 -27.521,-16.072c-11.992,0.005 -24.619,5.874 -37.881,17.608c-12.385,10.958 -19.607,21.217 -21.668,30.777c-2.06,9.559 0.371,21.1 7.293,34.621l-28.851,19.268c-7.409,-13.09 -11.431,-25.397 -12.064,-36.92c-0.633,-11.523 2.504,-23.599 9.41,-36.229c6.906,-12.631 17.039,-24.856 30.399,-36.677c13.263,-11.734 25.419,-19.708 36.469,-23.921c11.05,-4.214 20.617,-5.681 28.703,-4.403c8.085,1.278 16.1,4.835 24.046,10.671c4.846,3.71 12.446,11.415 22.8,23.117l31.062,35.107c21.656,24.476 35.914,39.461 42.774,44.954c6.859,5.493 14.578,9.746 23.156,12.761l-27.499,24.332c-7.563,-3.045 -14.969,-7.88 -22.221,-14.503Zm-54.222,-56.862c-6.105,12.357 -17.507,28.356 -34.204,47.997c-9.444,11.138 -15.546,19.666 -18.306,25.586c-2.761,5.919 -3.699,11.834 -2.815,17.746c0.884,5.911 3.354,11.159 7.409,15.742c6.212,7.021 14.046,10.521 23.503,10.5c9.456,-0.022 19.304,-4.562 29.543,-13.622c10.142,-8.973 17.199,-19.173 21.172,-30.599c3.973,-11.426 4.405,-22.63 1.294,-33.613c-2.435,-8.45 -8.786,-18.478 -19.054,-30.083l-8.542,-9.654Z" style="fill:#fff;fill-rule:nonzero;"/><path d="M3021.73,2229.13l-184.164,-219.243l26.92,-22.612l184.163,219.243l-26.919,22.612Z" style="fill:#fff;fill-rule:nonzero;"/><path d="M4360.13,1266.2l31.44,-17.285c7.33,12.422 15.676,21.584 25.04,27.487c9.363,5.903 21.145,8.818 35.344,8.745c14.199,-0.073 28.745,-3.394 43.636,-9.962c13.224,-5.833 24.032,-12.949 32.424,-21.347c8.392,-8.398 13.55,-17.113 15.472,-26.144c1.922,-9.031 1.097,-17.597 -2.477,-25.698c-3.625,-8.22 -9.174,-14.347 -16.646,-18.38c-7.472,-4.033 -17.607,-5.718 -30.407,-5.053c-8.237,0.361 -25.663,2.959 -52.276,7.797c-26.614,4.837 -45.875,6.822 -57.785,5.956c-15.399,-1.035 -28.308,-5.053 -38.726,-12.056c-10.418,-7.004 -18.281,-16.521 -23.588,-28.554c-5.834,-13.223 -7.533,-27.239 -5.099,-42.046c2.435,-14.807 9.546,-28.368 21.333,-40.683c11.788,-12.315 26.498,-22.362 44.129,-30.139c19.419,-8.566 37.924,-12.993 55.515,-13.28c17.591,-0.288 33.057,3.883 46.399,12.514c13.342,8.63 23.701,20.498 31.075,35.604l-32.134,17.163c-9.092,-15.771 -20.656,-25.613 -34.692,-29.526c-14.036,-3.913 -31.121,-1.429 -51.254,7.452c-20.967,9.249 -34.552,19.83 -40.752,31.745c-6.201,11.914 -6.91,23.292 -2.128,34.133c4.151,9.411 10.962,15.657 20.433,18.738c9.351,3.133 29.52,1.672 60.507,-4.382c30.986,-6.055 52.772,-9.011 65.358,-8.871c18.349,0.303 33.536,4.242 45.558,11.818c12.023,7.576 21.135,18.393 27.336,32.451c6.148,13.938 7.951,28.833 5.408,44.684c-2.543,15.851 -9.779,30.5 -21.709,43.945c-11.929,13.445 -27.246,24.293 -45.95,32.543c-23.707,10.457 -45.097,15.765 -64.168,15.924c-19.071,0.158 -36.225,-4.693 -51.461,-14.551c-15.236,-9.859 -26.954,-23.44 -35.155,-40.742Z" style="fill:#fff;fill-rule:nonzero;"/><path d="M4599.59,1148.98c-14.064,-35.744 -14.545,-66.128 -1.444,-91.152c10.974,-20.829 28.396,-35.94 52.266,-45.332c26.535,-10.441 51.645,-10.281 75.328,0.479c23.684,10.761 41.556,31.468 53.618,62.123c9.774,24.839 13.736,45.844 11.886,63.013c-1.85,17.169 -8.344,32.492 -19.482,45.97c-11.138,13.477 -25.128,23.53 -41.97,30.157c-27.021,10.631 -52.27,10.561 -75.747,-0.21c-23.478,-10.771 -41.63,-32.454 -54.455,-65.048Zm33.624,-13.229c9.726,24.717 22.4,41.104 38.023,49.159c15.623,8.055 31.613,8.865 47.971,2.429c16.236,-6.389 27.314,-17.884 33.235,-34.486c5.921,-16.602 3.899,-37.565 -6.065,-62.889c-9.392,-23.87 -21.93,-39.82 -37.613,-47.852c-15.683,-8.031 -31.583,-8.876 -47.698,-2.535c-16.357,6.436 -27.52,17.894 -33.489,34.375c-5.968,16.481 -4.09,37.081 5.636,61.799Z" style="fill:#fff;fill-rule:nonzero;"/><path d="M4887.57,1149.42l-30.781,10.788l-94.703,-270.213l33.178,-11.628l33.785,96.399c7.85,-22.481 22.65,-37.533 44.4,-45.156c12.042,-4.22 24.29,-5.788 36.743,-4.702c12.453,1.085 23.691,4.804 33.712,11.157c10.022,6.352 19.174,15.045 27.456,26.078c8.282,11.033 14.899,23.615 19.852,37.746c11.757,33.546 12.549,62.381 2.377,86.504c-10.172,24.123 -26.87,40.254 -50.094,48.394c-23.101,8.096 -44.607,4.802 -64.517,-9.882l8.592,24.515Zm-35.187,-99.22c8.225,23.471 17.363,39.308 27.414,47.514c16.431,13.419 33.555,17.007 51.373,10.762c14.499,-5.081 24.826,-15.772 30.979,-32.071c6.154,-16.299 4.859,-36.92 -3.883,-61.865c-8.958,-25.559 -20.637,-42.645 -35.038,-51.257c-14.402,-8.612 -28.791,-10.399 -43.168,-5.36c-14.499,5.082 -24.826,15.772 -30.98,32.071c-6.153,16.299 -5.052,36.368 3.303,60.206Z" style="fill:#fff;fill-rule:nonzero;"/><path d="M5066.95,1087.81l-62.445,-197.799l30.172,-9.526l9.467,29.987c3.269,-16.461 7.457,-27.956 12.565,-34.484c5.107,-6.528 11.572,-11.027 19.395,-13.496c11.299,-3.568 23.922,-3.593 37.867,-0.076l-1.728,34.75c-9.724,-2.256 -18.683,-2.09 -26.879,0.497c-7.325,2.313 -13.21,6.595 -17.655,12.845c-4.444,6.25 -6.673,13.679 -6.687,22.285c0.038,13.097 2.292,26.722 6.761,40.877l32.692,103.556l-33.525,10.584Z" style="fill:#fff;fill-rule:nonzero;"/><path d="M5312.36,944.201l36.16,-5.689c0.339,21.981 -5.325,40.739 -16.993,56.272c-11.667,15.534 -29.079,26.618 -52.235,33.254c-29.165,8.357 -54.864,6.003 -77.097,-7.063c-22.233,-13.066 -37.994,-35.809 -47.284,-68.228c-9.612,-33.546 -8.436,-62.056 3.529,-85.531c11.965,-23.475 31.717,-39.158 59.254,-47.049c26.662,-7.64 51.042,-4.806 73.141,8.501c22.099,13.308 37.865,36.422 47.298,69.342c0.574,2.002 1.372,5.024 2.395,9.066l-148.703,42.611c7.528,21.546 18.53,36.543 33.006,44.992c14.476,8.449 30.038,10.288 46.686,5.517c12.392,-3.551 22.036,-9.836 28.933,-18.855c6.897,-9.02 10.867,-21.4 11.91,-37.14Zm-126.62,-22.84l111.339,-31.905c-6.308,-16.342 -14.169,-27.702 -23.581,-34.08c-14.495,-9.933 -30.317,-12.443 -47.465,-7.529c-15.522,4.448 -27.082,13.381 -34.682,26.801c-7.6,13.42 -9.47,28.991 -5.611,46.713Z" style="fill:#fff;fill-rule:nonzero;"/><path d="M5427.47,1064.3l-68.511,-278.614l31.104,-7.648l6.436,26.173c4.815,-12.045 11.208,-21.763 19.179,-29.154c7.971,-7.39 18.532,-12.702 31.682,-15.936c17.196,-4.229 33.457,-3.534 48.784,2.083c15.326,5.617 28.322,15.663 38.988,30.136c10.665,14.474 18.361,31.32 23.087,50.539c5.068,20.61 5.933,40.075 2.593,58.394c-3.339,18.32 -10.977,33.607 -22.915,45.861c-11.937,12.255 -25.682,20.294 -41.234,24.119c-11.38,2.798 -22.181,2.906 -32.403,0.325c-10.222,-2.582 -19.143,-6.825 -26.762,-12.728l24.112,98.055l-34.14,8.395Zm-12.552,-184.367c6.374,25.92 16.332,43.786 29.874,53.597c13.541,9.81 27.772,12.881 42.692,9.212c15.173,-3.731 26.587,-13.343 34.242,-28.835c7.655,-15.492 8.171,-36.704 1.549,-63.636c-6.312,-25.668 -16.317,-43.589 -30.015,-53.763c-13.698,-10.175 -27.881,-13.458 -42.548,-9.852c-14.541,3.576 -25.735,13.536 -33.583,29.88c-7.848,16.344 -8.585,37.476 -2.211,63.397Z" style="fill:#fff;fill-rule:nonzero;"/><path d="M5750.02,840.512l36.481,-3.007c-1.283,21.946 -8.315,40.235 -21.096,54.866c-12.781,14.631 -30.963,24.401 -54.546,29.311c-29.702,6.184 -55.157,1.94 -76.366,-12.73c-21.208,-14.67 -35.25,-38.513 -42.123,-71.529c-7.113,-34.163 -3.837,-62.509 9.827,-85.038c13.663,-22.529 34.517,-36.712 62.562,-42.551c27.152,-5.653 51.257,-1.029 72.314,13.872c21.058,14.902 35.076,39.115 42.056,72.641c0.425,2.04 0.998,5.112 1.72,9.218l-151.441,31.529c5.919,22.042 15.786,37.81 29.599,47.303c13.814,9.494 29.197,12.475 46.151,8.946c12.621,-2.628 22.702,-8.185 30.245,-16.671c7.544,-8.487 12.416,-20.54 14.617,-36.16Zm-124.591,-32.116l113.389,-23.607c-5.086,-16.763 -12.088,-28.672 -21.004,-35.726c-13.723,-10.975 -29.317,-14.645 -46.781,-11.009c-15.807,3.291 -27.995,11.348 -36.564,24.171c-8.568,12.823 -11.582,28.213 -9.04,46.171Z" style="fill:#fff;fill-rule:nonzero;"/><path d="M5818.51,831.97l33.336,-11.283c4.286,13.4 11.454,23.001 21.502,28.804c10.048,5.802 22.964,7.346 38.748,4.632c15.912,-2.737 27.161,-8.008 33.746,-15.812c6.585,-7.805 9.127,-16.07 7.626,-24.796c-1.346,-7.828 -5.806,-13.403 -13.38,-16.724c-5.278,-2.263 -17.757,-4.147 -37.437,-5.65c-26.512,-2.047 -45.079,-4.568 -55.701,-7.563c-10.622,-2.995 -19.18,-8.196 -25.672,-15.601c-6.492,-7.405 -10.599,-16.112 -12.321,-26.122c-1.567,-9.111 -0.933,-17.907 1.903,-26.387c2.835,-8.481 7.404,-15.906 13.708,-22.275c4.705,-4.905 11.472,-9.537 20.301,-13.896c8.829,-4.359 18.569,-7.455 29.22,-9.287c16.041,-2.758 30.521,-2.871 43.443,-0.337c12.921,2.534 22.947,7.251 30.079,14.149c7.132,6.899 12.925,16.77 17.38,29.612l-33.083,10.446c-3.349,-10.258 -9.221,-17.703 -17.615,-22.337c-8.394,-4.634 -19.328,-5.792 -32.802,-3.475c-15.912,2.737 -26.816,7.321 -32.713,13.752c-5.896,6.431 -8.237,13.175 -7.023,20.233c0.772,4.491 2.879,8.291 6.32,11.398c3.463,3.236 8.42,5.554 14.871,6.955c3.685,0.688 14.394,1.884 32.128,3.591c25.635,2.329 43.656,4.746 54.062,7.25c10.405,2.504 19.051,7.26 25.938,14.267c6.886,7.007 11.344,16.413 13.375,28.219c1.986,11.549 0.488,23.004 -4.494,34.365c-4.983,11.36 -13.346,20.924 -25.09,28.691c-11.744,7.767 -25.636,13.03 -41.677,15.789c-26.563,4.568 -47.755,2.532 -63.576,-6.109c-15.821,-8.642 -27.522,-23.475 -35.102,-44.499Z" style="fill:#fff;fill-rule:nonzero;"/><path d="M6013.11,756.47c-5.179,-38.061 1.564,-67.691 20.231,-88.891c15.604,-17.63 36.114,-28.174 61.531,-31.633c28.255,-3.844 52.609,2.27 73.062,18.344c20.453,16.074 32.901,40.432 37.342,73.074c3.6,26.449 2.463,47.793 -3.409,64.032c-5.871,16.24 -15.817,29.584 -29.835,40.033c-14.019,10.449 -29.995,16.894 -47.929,19.335c-28.771,3.915 -53.282,-2.146 -73.533,-18.181c-20.25,-16.036 -32.737,-41.407 -37.46,-76.113Zm35.803,-4.872c3.582,26.32 12.005,45.246 25.269,56.779c13.265,11.533 28.606,16.114 46.024,13.744c17.288,-2.352 30.779,-10.89 40.471,-25.612c9.692,-14.723 12.703,-35.567 9.034,-62.532c-3.459,-25.416 -11.853,-43.887 -25.182,-55.411c-13.329,-11.524 -28.574,-16.119 -45.733,-13.784c-17.418,2.37 -30.982,10.852 -40.691,25.446c-9.71,14.593 -12.774,35.05 -9.192,61.37Z" style="fill:#fff;fill-rule:nonzero;"/><path d="M7602.56,684.993c6.069,-47.137 23.476,-82.41 52.221,-105.819c28.746,-23.41 63.136,-32.537 103.17,-27.383c26.216,3.376 49.042,12.682 68.48,27.919c19.437,15.237 33.234,34.769 41.391,58.597c8.157,23.828 10.407,49.947 6.749,78.358c-3.708,28.799 -12.836,53.815 -27.385,75.048c-14.55,21.232 -33.231,36.321 -56.044,45.265c-22.813,8.943 -46.553,11.828 -71.219,8.652c-26.733,-3.442 -49.793,-12.975 -69.18,-28.599c-19.388,-15.625 -33.067,-35.306 -41.039,-59.044c-7.971,-23.739 -10.353,-48.07 -7.144,-72.994Zm38.668,5.569c-4.406,34.222 1.325,62.366 17.192,84.429c15.867,22.064 37.684,34.883 65.449,38.458c28.282,3.641 52.841,-3.306 73.675,-20.841c20.834,-17.536 33.604,-44.577 38.309,-81.124c2.976,-23.117 1.668,-43.798 -3.926,-62.045c-5.593,-18.246 -15.302,-33.084 -29.125,-44.513c-13.823,-11.429 -30.097,-18.349 -48.823,-20.76c-26.603,-3.425 -50.67,2.765 -72.2,18.57c-21.53,15.804 -35.047,45.08 -40.551,87.826Z" style="fill:#fff;fill-rule:nonzero;"/><path d="M7932.28,871.549l-32.133,-5.595l49.114,-282.084l34.635,6.03l-17.521,100.634c17.817,-15.797 38.079,-21.719 60.784,-17.766c12.571,2.189 24.028,6.794 34.37,13.815c10.342,7.021 18.339,15.749 23.989,26.183c5.651,10.434 9.401,22.486 11.25,36.157c1.849,13.671 1.49,27.882 -1.079,42.634c-6.097,35.02 -19.469,60.579 -40.114,76.678c-20.646,16.098 -43.091,22.036 -67.336,17.815c-24.116,-4.199 -41.284,-17.563 -51.503,-40.093l-4.456,25.592Zm17.673,-103.78c-4.266,24.501 -4.013,42.784 0.759,54.849c7.799,19.729 20.999,31.213 39.6,34.452c15.136,2.635 29.366,-1.661 42.687,-12.889c13.321,-11.227 22.249,-29.862 26.783,-55.902c4.645,-26.682 2.782,-47.294 -5.59,-61.836c-8.371,-14.542 -20.062,-23.12 -35.07,-25.733c-15.137,-2.636 -29.366,1.66 -42.687,12.888c-13.322,11.228 -22.149,29.285 -26.482,54.171Z" style="fill:#fff;fill-rule:nonzero;"/><path d="M8271.97,868.905l34.621,11.888c-9.984,19.586 -23.765,33.515 -41.344,41.785c-17.579,8.271 -38.153,9.922 -61.724,4.954c-29.686,-6.258 -51.298,-20.361 -64.835,-42.31c-13.537,-21.949 -16.828,-49.423 -9.872,-82.422c7.198,-34.146 21.575,-58.793 43.132,-73.944c21.557,-15.15 46.351,-19.771 74.381,-13.862c27.138,5.72 47.36,19.631 60.666,41.73c13.305,22.1 16.427,49.905 9.363,83.413c-0.429,2.039 -1.138,5.083 -2.124,9.133l-151.362,-31.906c-3.426,22.565 -0.718,40.967 8.124,55.207c8.842,14.239 21.735,23.144 38.68,26.716c12.614,2.659 24.078,1.616 34.393,-3.129c10.315,-4.746 19.616,-13.83 27.901,-27.253Zm-101.224,-79.423l113.329,23.889c2.07,-17.395 0.438,-31.112 -4.898,-41.153c-8.164,-15.56 -20.973,-25.18 -38.428,-28.859c-15.799,-3.33 -30.196,-0.843 -43.191,7.463c-12.995,8.305 -21.933,21.192 -26.812,38.66Z" style="fill:#fff;fill-rule:nonzero;"/><path d="M8338.02,888.533l35.062,3.028c-1.445,13.994 1.272,25.664 8.151,35.008c6.879,9.344 18.093,15.937 33.641,19.778c15.675,3.872 28.093,3.553 37.254,-0.957c9.162,-4.51 14.804,-11.063 16.928,-19.659c1.905,-7.711 0.054,-14.606 -5.553,-20.685c-3.928,-4.189 -14.605,-10.918 -32.032,-20.185c-23.467,-12.503 -39.466,-22.257 -47.997,-29.259c-8.53,-7.003 -14.285,-15.198 -17.264,-24.585c-2.979,-9.386 -3.251,-19.01 -0.815,-28.87c2.217,-8.975 6.325,-16.779 12.322,-23.411c5.998,-6.633 13.16,-11.603 21.488,-14.911c6.277,-2.607 14.334,-4.138 24.17,-4.592c9.836,-0.453 20,0.616 30.492,3.207c15.801,3.904 29.112,9.606 39.934,17.108c10.821,7.502 18.116,15.842 21.884,25.021c3.768,9.18 5.118,20.545 4.05,34.096l-34.496,-3.693c1.044,-10.741 -1.35,-19.916 -7.182,-27.526c-5.832,-7.611 -15.385,-13.055 -28.658,-16.334c-15.674,-3.872 -27.502,-4.044 -35.481,-0.517c-7.98,3.528 -12.829,8.768 -14.547,15.721c-1.093,4.424 -0.686,8.749 1.221,12.976c1.875,4.353 5.487,8.464 10.835,12.333c3.101,2.107 12.432,7.497 27.994,16.17c22.551,12.411 38.091,21.85 46.62,28.315c8.529,6.466 14.544,14.289 18.043,23.469c3.5,9.181 3.813,19.585 0.94,31.215c-2.81,11.377 -8.775,21.27 -17.894,29.68c-9.119,8.41 -20.615,13.819 -34.488,16.226c-13.873,2.408 -28.709,1.66 -44.51,-2.244c-26.167,-6.464 -44.765,-16.825 -55.795,-31.085c-11.03,-14.259 -15.802,-32.538 -14.317,-54.838Z" style="fill:#fff;fill-rule:nonzero;"/><path d="M8595.63,764.087l10.629,-39.008l33.919,9.242l-10.628,39.008l-33.92,-9.242Zm-64.642,237.25l54.527,-200.127l33.92,9.242l-54.528,200.127l-33.919,-9.242Z" style="fill:#fff;fill-rule:nonzero;"/><path d="M8745.34,1063.04l7.49,-25.077c-18.489,15.949 -39.96,20.272 -64.413,12.969c-15.845,-4.732 -29.107,-13.449 -39.786,-26.151c-10.679,-12.702 -17.33,-27.971 -19.952,-45.809c-2.623,-17.837 -0.897,-36.924 5.177,-57.261c5.924,-19.837 14.605,-36.847 26.043,-51.029c11.438,-14.182 25.054,-23.602 40.85,-28.261c15.796,-4.659 31.866,-4.548 48.21,0.333c11.977,3.577 21.89,9.29 29.738,17.137c7.848,7.848 13.493,16.702 16.935,26.563l29.399,-98.439l33.499,10.005l-81.937,274.354l-31.253,-9.334Zm-76.863,-130.989c-7.601,25.452 -7.918,46.081 -0.952,61.886c6.966,15.806 17.748,25.888 32.345,30.248c14.722,4.396 29.028,2.112 42.916,-6.854c13.889,-8.965 24.522,-25.8 31.9,-50.503c8.123,-27.198 8.844,-48.725 2.165,-64.581c-6.68,-15.856 -17.692,-26.075 -33.038,-30.658c-14.972,-4.471 -29.305,-2.093 -43,7.134c-13.695,9.227 -24.474,27.003 -32.336,53.328Z" style="fill:#fff;fill-rule:nonzero;"/><path d="M8965.42,1108.56c-15.89,6.289 -30.27,9.654 -43.14,10.093c-12.87,0.439 -25.839,-1.562 -38.907,-6.003c-21.575,-7.332 -36.365,-18.237 -44.372,-32.716c-8.006,-14.48 -9.223,-29.917 -3.651,-46.314c3.268,-9.616 8.442,-17.656 15.521,-24.121c7.079,-6.464 14.98,-10.896 23.703,-13.295c8.722,-2.399 17.941,-3.323 27.655,-2.772c7.121,0.495 17.549,2.182 31.285,5.063c27.965,5.928 49.051,8.831 63.258,8.708c1.673,-4.52 2.719,-7.396 3.138,-8.629c4.609,-13.561 4.712,-24.184 0.31,-31.868c-5.951,-10.412 -17.309,-18.466 -34.076,-24.164c-15.657,-5.321 -28.147,-6.506 -37.47,-3.555c-9.323,2.951 -18.139,10.785 -26.449,23.501l-31.038,-15.499c7.693,-12.926 16.386,-22.52 26.078,-28.784c9.693,-6.264 21.735,-9.529 36.128,-9.794c14.392,-0.266 30.034,2.471 46.923,8.211c16.767,5.698 29.719,12.3 38.858,19.807c9.138,7.506 15.157,15.087 18.056,22.742c2.9,7.655 3.785,16.379 2.657,26.172c-0.817,6.049 -3.74,16.47 -8.768,31.264l-15.083,44.382c-10.516,30.944 -16.459,50.756 -17.827,59.436c-1.368,8.68 -1.235,17.493 0.401,26.438l-34.766,-11.815c-1.105,-8.077 -0.58,-16.907 1.576,-26.488Zm22.49,-75.283c-13.757,0.826 -33.305,-1.142 -58.641,-5.902c-14.355,-2.678 -24.787,-3.748 -31.296,-3.209c-6.509,0.538 -12.111,2.657 -16.806,6.356c-4.695,3.699 -8.028,8.445 -9.997,14.24c-3.016,8.876 -2.171,17.415 2.537,25.616c4.708,8.201 13.534,14.501 26.479,18.9c12.822,4.358 25.178,5.428 37.071,3.213c11.892,-2.216 21.836,-7.397 29.83,-15.545c6.131,-6.305 11.69,-16.793 16.675,-31.464l4.148,-12.205Z" style="fill:#fff;fill-rule:nonzero;"/><path d="M9165.21,1209.66l9.293,-24.467c-19.599,14.563 -41.328,17.314 -65.185,8.252c-15.459,-5.872 -28.052,-15.53 -37.78,-28.975c-9.727,-13.444 -15.25,-29.157 -16.568,-47.138c-1.319,-17.981 1.79,-36.892 9.326,-56.733c7.351,-19.354 17.246,-35.687 29.684,-49c12.439,-13.313 26.705,-21.719 42.798,-25.217c16.092,-3.498 32.112,-2.219 48.058,3.838c11.685,4.438 21.156,10.856 28.413,19.254c7.257,8.397 12.243,17.638 14.959,27.723l36.478,-96.04l32.683,12.414l-101.667,267.67l-30.492,-11.581Zm-67.136,-136.231c-9.431,24.832 -11.248,45.383 -5.449,61.653c5.798,16.27 15.819,27.11 30.06,32.519c14.364,5.456 28.797,4.217 43.301,-3.715c14.504,-7.932 26.333,-23.949 35.487,-48.05c10.079,-26.536 12.364,-47.953 6.855,-64.253c-5.509,-16.299 -15.75,-27.292 -30.722,-32.979c-14.606,-5.548 -29.075,-4.218 -43.404,3.989c-14.33,8.207 -26.372,25.152 -36.128,50.836Z" style="fill:#fff;fill-rule:nonzero;"/><path d="M9359.25,1289.59l114.106,-262.61l34.752,15.1l-114.106,262.61l-34.752,-15.1Z" style="fill:#fff;fill-rule:nonzero;"/><path d="M10586.7,1823.76c28.625,-37.938 61.221,-59.954 97.788,-66.046c36.568,-6.092 70.962,3.017 103.184,27.329c21.1,15.921 36.317,35.314 45.652,58.179c9.335,22.866 11.643,46.668 6.923,71.407c-4.72,24.739 -15.707,48.542 -32.96,71.409c-17.489,23.179 -37.812,40.386 -60.97,51.621c-23.157,11.236 -46.86,15.086 -71.108,11.553c-24.247,-3.534 -46.298,-12.79 -66.15,-27.769c-21.516,-16.234 -36.824,-35.94 -45.923,-59.118c-9.1,-23.177 -11.232,-47.05 -6.395,-71.62c4.836,-24.569 14.823,-46.884 29.959,-66.945Zm30.829,23.995c-20.783,27.545 -29.748,54.83 -26.897,81.857c2.852,27.026 15.452,48.97 37.799,65.832c22.763,17.175 47.537,23.308 74.322,18.398c26.785,-4.91 51.275,-22.072 73.469,-51.487c14.038,-18.606 23.148,-37.219 27.33,-55.84c4.181,-18.62 3.099,-36.319 -3.246,-53.095c-6.344,-16.776 -17.053,-30.85 -32.124,-42.222c-21.412,-16.156 -45.384,-22.703 -71.916,-19.641c-26.533,3.061 -52.778,21.794 -78.737,56.198Z" style="fill:#fff;fill-rule:nonzero;"/><path d="M10780.5,2149.03l-25.128,-20.796l182.553,-220.585l27.085,22.414l-65.127,78.695c23.307,-4.881 43.838,0.026 61.593,14.72c9.831,8.135 17.495,17.816 22.993,29.043c5.498,11.226 8.113,22.77 7.845,34.633c-0.268,11.863 -2.989,24.188 -8.164,36.976c-5.175,12.788 -12.536,24.95 -22.083,36.486c-22.663,27.385 -46.951,42.947 -72.862,46.686c-25.912,3.74 -48.347,-2.236 -67.306,-17.926c-18.859,-15.607 -27.138,-35.727 -24.837,-60.358l-16.562,20.012Zm66.818,-81.351c-15.856,19.159 -24.705,35.161 -26.545,48.004c-3.013,21 2.754,37.518 17.299,49.556c11.837,9.796 26.323,13.123 43.459,9.98c17.136,-3.143 34.13,-14.895 50.983,-35.259c17.267,-20.864 25.872,-39.687 25.815,-56.467c-0.057,-16.779 -5.954,-30.026 -17.69,-39.739c-11.837,-9.796 -26.323,-13.122 -43.459,-9.98c-17.136,3.143 -33.757,14.444 -49.862,33.905Z" style="fill:#fff;fill-rule:nonzero;"/><path d="M11076.8,2315.44l24.149,27.508c-18.39,12.045 -37.268,17.293 -56.634,15.745c-19.365,-1.548 -38.044,-10.33 -56.038,-26.345c-22.662,-20.171 -34.42,-43.143 -35.274,-68.917c-0.853,-25.774 9.931,-51.256 32.352,-76.447c23.201,-26.066 47.918,-40.323 74.153,-42.772c26.234,-2.448 50.05,5.851 71.448,24.896c20.717,18.439 31.364,40.554 31.942,66.344c0.578,25.79 -10.517,51.474 -33.285,77.054c-1.385,1.557 -3.511,3.848 -6.379,6.873l-115.547,-102.844c-14.177,17.887 -20.963,35.205 -20.358,51.955c0.606,16.75 7.376,30.882 20.312,42.396c9.629,8.57 20.099,13.356 31.409,14.359c11.31,1.002 23.893,-2.266 37.75,-9.805Zm-48.436,-119.199l86.515,77.004c10.433,-14.072 15.826,-26.79 16.18,-38.155c0.639,-17.56 -5.705,-32.27 -19.029,-44.13c-12.061,-10.735 -25.793,-15.723 -41.197,-14.966c-15.404,0.758 -29.56,7.507 -42.469,20.247Z" style="fill:#fff;fill-rule:nonzero;"/><path d="M11124.3,2365.16l28.922,20.051c-8.208,11.426 -11.649,22.903 -10.323,34.43c1.326,11.527 7.781,22.821 19.365,33.88c11.679,11.149 22.613,17.044 32.805,17.682c10.191,0.639 18.344,-2.244 24.458,-8.648c5.485,-5.745 7.305,-12.648 5.46,-20.71c-1.326,-5.587 -7.248,-16.731 -17.766,-33.433c-14.152,-22.512 -23.189,-38.926 -27.112,-49.242c-3.922,-10.316 -4.844,-20.287 -2.765,-29.913c2.08,-9.626 6.626,-18.112 13.639,-25.458c6.384,-6.687 13.826,-11.418 22.327,-14.194c8.501,-2.776 17.186,-3.529 26.057,-2.261c6.743,0.857 14.495,3.532 23.256,8.026c8.761,4.494 17.05,10.472 24.867,17.935c11.772,11.239 20.49,22.803 26.153,34.69c5.663,11.887 7.848,22.75 6.557,32.588c-1.292,9.838 -5.768,20.372 -13.428,31.601l-28.1,-20.347c6.243,-8.802 8.725,-17.954 7.445,-27.456c-1.279,-9.502 -6.863,-18.974 -16.752,-28.415c-11.678,-11.149 -21.856,-17.176 -30.534,-18.08c-8.678,-0.904 -15.49,1.234 -20.435,6.414c-3.147,3.296 -4.943,7.251 -5.389,11.867c-0.535,4.709 0.556,10.071 3.274,16.087c1.644,3.369 7.063,12.683 16.258,27.942c13.402,21.977 22.198,37.89 26.386,47.739c4.188,9.85 5.52,19.627 3.995,29.333c-1.525,9.705 -6.424,18.89 -14.696,27.554c-8.092,8.476 -18.184,14.098 -30.277,16.865c-12.093,2.766 -24.756,1.747 -37.991,-3.057c-13.235,-4.805 -25.739,-12.827 -37.511,-24.066c-19.495,-18.612 -30.486,-36.846 -32.972,-54.701c-2.485,-17.855 2.457,-36.09 14.827,-54.703Z" style="fill:#fff;fill-rule:nonzero;"/><path d="M11409.4,2384.96l28.615,-28.561l24.836,24.883l-28.616,28.561l-24.835,-24.883Zm-174.042,173.711l146.809,-146.53l24.835,24.883l-146.809,146.53l-24.835,-24.883Z" style="fill:#fff;fill-rule:nonzero;"/><path d="M11391.2,2719.35l18.974,-18.026c-23.973,4.636 -44.748,-2.298 -62.326,-20.8c-11.39,-11.989 -18.556,-26.149 -21.499,-42.48c-2.944,-16.331 -1.115,-32.886 5.486,-49.663c6.601,-16.778 17.594,-32.476 32.982,-47.094c15.009,-14.259 31.003,-24.695 47.981,-31.305c16.978,-6.611 33.476,-8.007 49.496,-4.189c16.02,3.818 29.904,11.911 41.653,24.277c8.609,9.062 14.366,18.949 17.269,29.662c2.903,10.712 3.394,21.201 1.473,31.467l74.481,-70.76l24.08,25.347l-207.585,197.212l-22.465,-23.648Zm-1.497,-151.867c-19.257,18.295 -29.797,36.031 -31.618,53.207c-1.822,17.177 2.514,31.287 13.007,42.332c10.582,11.139 24.128,16.275 40.636,15.409c16.508,-0.867 34.108,-10.178 52.799,-27.935c20.579,-19.551 31.916,-37.865 34.012,-54.942c2.095,-17.078 -2.373,-31.422 -13.403,-43.033c-10.762,-11.328 -24.379,-16.397 -40.849,-15.207c-16.471,1.19 -34.665,11.246 -54.584,30.169Z" style="fill:#fff;fill-rule:nonzero;"/><path d="M11559.4,2868.36c-16.911,-2.457 -31.057,-6.7 -42.437,-12.727c-11.38,-6.028 -21.63,-14.22 -30.752,-24.579c-15.059,-17.101 -22.455,-33.923 -22.189,-50.466c0.266,-16.543 6.898,-30.537 19.895,-41.982c7.622,-6.712 16.112,-11.109 25.47,-13.19c9.358,-2.081 18.416,-1.991 27.175,0.272c8.759,2.263 17.214,6.052 25.364,11.367c5.929,3.975 14.132,10.631 24.61,19.968c21.3,19.066 38.141,32.082 50.522,39.05c3.701,-3.086 6.041,-5.06 7.018,-5.92c10.749,-9.466 16.129,-18.627 16.137,-27.483c0.024,-11.992 -5.816,-24.633 -17.519,-37.923c-10.929,-12.41 -21.17,-19.657 -30.725,-21.74c-9.555,-2.083 -21.101,0.321 -34.639,7.211l-19.199,-28.896c13.107,-7.379 25.423,-11.371 36.948,-11.977c11.524,-0.606 23.593,2.559 36.207,9.495c12.614,6.936 24.816,17.098 36.605,30.486c11.703,13.29 19.648,25.465 23.835,36.525c4.187,11.06 5.632,20.631 4.335,28.713c-1.298,8.082 -4.873,16.089 -10.728,24.021c-3.721,4.838 -11.444,12.42 -23.171,22.746l-35.179,30.978c-24.528,21.599 -39.547,35.822 -45.055,42.668c-5.509,6.846 -9.781,14.555 -12.817,23.127l-24.266,-27.558c3.063,-7.555 7.915,-14.95 14.555,-22.186Zm56.99,-54.087c-12.342,-6.135 -28.314,-17.574 -47.916,-34.318c-11.116,-9.47 -19.63,-15.592 -25.542,-18.366c-5.913,-2.775 -11.826,-3.727 -17.74,-2.857c-5.913,0.87 -11.167,3.327 -15.76,7.372c-7.035,6.196 -10.554,14.022 -10.555,23.478c-0,9.456 4.517,19.315 13.552,29.575c8.95,10.163 19.133,17.245 30.549,21.245c11.417,4 22.62,4.457 33.61,1.373c8.456,-2.415 18.499,-8.743 30.127,-18.983l9.675,-8.519Z" style="fill:#fff;fill-rule:nonzero;"/><path d="M11682.2,3055.54l20.246,-16.585c-24.248,2.864 -44.459,-5.576 -60.632,-25.318c-10.479,-12.792 -16.587,-27.44 -18.324,-43.943c-1.737,-16.503 1.301,-32.879 9.115,-49.127c7.814,-16.248 19.931,-31.097 36.349,-44.546c16.015,-13.12 32.731,-22.354 50.149,-27.701c17.417,-5.347 33.974,-5.529 49.67,-0.545c15.697,4.983 28.95,14.073 39.759,27.268c7.921,9.669 12.937,19.952 15.046,30.848c2.109,10.897 1.829,21.394 -0.84,31.491l79.473,-65.104l22.155,27.045l-221.496,181.449l-20.67,-25.232Zm9.651,-151.568c-20.548,16.833 -32.36,33.747 -35.437,50.744c-3.077,16.996 0.211,31.387 9.865,43.172c9.737,11.885 22.869,18.002 39.396,18.349c16.528,0.347 34.763,-7.648 54.707,-23.986c21.958,-17.988 34.609,-35.421 37.952,-52.298c3.342,-16.877 -0.061,-31.511 -10.21,-43.9c-9.902,-12.087 -23.109,-18.142 -39.623,-18.164c-16.513,-0.022 -35.396,8.673 -56.65,26.083Z" style="fill:#fff;fill-rule:nonzero;"/><path d="M11810.8,3221.74l229.777,-170.84l22.608,30.407l-229.777,170.84l-22.608,-30.407Z" style="fill:#fff;fill-rule:nonzero;"/><path d="M11876.4,3311.06l232.832,-166.653l22.053,30.811l-232.832,166.653l-22.053,-30.811Z" style="fill:#fff;fill-rule:nonzero;"/><path d="M12610.2,4295.41c43.675,-18.739 82.899,-21.683 117.672,-8.832c34.772,12.852 60.116,37.825 76.032,74.919c10.422,24.291 14.014,48.678 10.775,73.163c-3.238,24.484 -13.043,46.296 -29.414,65.434c-16.372,19.139 -37.72,34.356 -64.045,45.65c-26.684,11.449 -52.866,16.307 -78.547,14.574c-25.681,-1.734 -48.171,-10.149 -67.472,-25.247c-19.3,-15.097 -33.853,-34.073 -43.659,-56.928c-10.628,-24.77 -14.143,-49.474 -10.545,-74.112c3.597,-24.639 13.59,-46.425 29.979,-65.358c16.388,-18.933 36.129,-33.354 59.224,-43.263Zm14.863,36.129c-31.709,13.605 -53.03,32.848 -63.962,57.729c-10.932,24.881 -10.879,50.185 0.159,75.911c11.244,26.206 29.712,43.821 55.404,52.847c25.692,9.025 55.47,6.273 89.333,-8.256c21.42,-9.19 38.563,-20.832 51.432,-34.925c12.868,-14.094 20.709,-29.997 23.523,-47.711c2.814,-17.714 0.498,-35.246 -6.946,-52.597c-10.576,-24.65 -28.142,-42.227 -52.698,-52.732c-24.556,-10.504 -56.637,-7.26 -96.245,9.734Z" style="fill:#fff;fill-rule:nonzero;"/><path d="M12617.1,4673.94l-11.504,-30.52l267.926,-100.991l12.4,32.897l-95.583,36.028c22.658,7.323 38.052,21.767 46.181,43.332c4.501,11.941 6.354,24.149 5.56,36.624c-0.794,12.475 -4.25,23.796 -10.367,33.964c-6.116,10.167 -14.593,19.52 -25.429,28.057c-10.836,8.538 -23.26,15.447 -37.272,20.729c-33.262,12.537 -62.071,14.003 -86.425,4.398c-24.354,-9.605 -40.871,-25.922 -49.551,-48.95c-8.634,-22.906 -5.844,-44.482 8.371,-64.73l-24.307,9.162Zm98.37,-37.496c-23.271,8.772 -38.891,18.277 -46.86,28.517c-13.032,16.74 -16.218,33.943 -9.559,51.61c5.419,14.377 16.348,24.451 32.786,30.222c16.439,5.771 37.025,3.995 61.758,-5.328c25.343,-9.553 42.151,-21.628 50.424,-36.226c8.273,-14.599 9.723,-29.026 4.35,-43.281c-5.419,-14.377 -16.348,-24.451 -32.786,-30.222c-16.438,-5.771 -36.476,-4.202 -60.113,4.708Z" style="fill:#fff;fill-rule:nonzero;"/><path d="M12791.8,4965.12l7.329,35.864c-21.943,1.339 -40.938,-3.465 -56.987,-14.414c-16.049,-10.948 -27.914,-27.837 -35.597,-50.668c-9.676,-28.754 -8.493,-54.533 3.547,-77.338c12.041,-22.804 34.043,-39.584 66.005,-50.34c33.074,-11.129 61.608,-11.252 85.603,-0.368c23.996,10.885 40.561,29.902 49.698,57.052c8.845,26.286 7.124,50.77 -5.164,73.451c-12.288,22.682 -34.661,39.484 -67.117,50.405c-1.975,0.665 -4.957,1.6 -8.948,2.805l-49.335,-146.609c-21.181,8.501 -35.662,20.175 -43.443,35.02c-7.781,14.846 -8.91,30.475 -3.387,46.888c4.111,12.218 10.829,21.566 20.153,28.045c9.325,6.479 21.872,9.882 37.643,10.207Zm17.054,-127.528l36.939,109.772c16.038,-7.046 27.029,-15.415 32.972,-25.108c9.263,-14.932 11.05,-30.852 5.36,-47.759c-5.149,-15.303 -14.6,-26.445 -28.352,-33.426c-13.752,-6.981 -29.391,-8.141 -46.919,-3.479Z" style="fill:#fff;fill-rule:nonzero;"/><path d="M12808.4,5031.9l15.17,31.755c-12.794,5.851 -21.473,14.111 -26.038,24.778c-4.566,10.668 -4.561,23.676 0.013,39.024c4.612,15.473 11.184,26.015 19.717,31.624c8.533,5.608 17.043,7.148 25.528,4.619c7.612,-2.268 12.616,-7.36 15.012,-15.275c1.619,-5.51 2.003,-18.124 1.153,-37.844c-1.124,-26.566 -0.832,-45.301 0.878,-56.205c1.71,-10.903 5.854,-20.019 12.434,-27.347c6.579,-7.327 14.736,-12.442 24.469,-15.343c8.859,-2.64 17.668,-3.058 26.426,-1.252c8.759,1.805 16.675,5.458 23.749,10.958c5.43,4.088 10.835,10.256 16.214,18.503c5.379,8.248 9.612,17.55 12.699,27.907c4.649,15.598 6.484,29.962 5.506,43.093c-0.977,13.131 -4.467,23.648 -10.467,31.551c-6.001,7.902 -15.111,14.829 -27.332,20.781l-14.31,-31.604c9.786,-4.547 16.479,-11.263 20.081,-20.149c3.602,-8.886 3.45,-19.88 -0.455,-32.983c-4.612,-15.473 -10.461,-25.754 -17.548,-30.843c-7.088,-5.088 -14.063,-6.61 -20.926,-4.564c-4.367,1.301 -7.889,3.845 -10.565,7.632c-2.8,3.824 -4.512,9.021 -5.135,15.593c-0.244,3.741 -0.157,14.517 0.26,32.327c0.739,25.73 0.485,43.911 -0.763,54.541c-1.247,10.629 -4.94,19.78 -11.077,27.452c-6.138,7.671 -14.946,13.218 -26.426,16.639c-11.231,3.347 -22.783,3.224 -34.656,-0.371c-11.872,-3.594 -22.364,-10.76 -31.474,-21.495c-9.11,-10.736 -15.989,-23.903 -20.638,-39.501c-7.698,-25.831 -8.199,-47.115 -1.503,-63.852c6.696,-16.737 20.031,-30.12 40.004,-40.149Z" style="fill:#fff;fill-rule:nonzero;"/><path d="M13046.2,5190.64l39.013,-10.608l9.225,33.924l-39.013,10.608l-9.225,-33.924Zm-237.282,64.521l200.154,-54.425l9.225,33.924l-200.155,54.425l-9.224,-33.924Z" style="fill:#fff;fill-rule:nonzero;"/><path d="M12864.5,5471.72l25.417,-6.242c-23.116,-7.865 -37.717,-24.189 -43.804,-48.973c-3.944,-16.06 -3.144,-31.91 2.4,-47.551c5.544,-15.641 15.343,-29.108 29.395,-40.403c14.053,-11.295 31.385,-19.474 51.997,-24.536c20.105,-4.937 39.169,-6.066 57.19,-3.386c18.021,2.68 33.041,9.651 45.058,20.912c12.017,11.26 20.059,25.173 24.127,41.738c2.982,12.14 3.076,23.58 0.284,34.322c-2.792,10.741 -7.568,20.093 -14.327,28.055l99.769,-24.503l8.339,33.952l-278.065,68.291l-7.78,-31.676Zm74.023,-132.615c-25.796,6.336 -43.745,16.509 -53.845,30.521c-10.101,14.011 -13.335,28.414 -9.701,43.209c3.664,14.921 12.879,26.099 27.644,33.534c14.764,7.436 34.665,8.079 59.702,1.93c27.566,-6.77 46.494,-17.05 56.784,-30.84c10.289,-13.789 13.524,-28.461 9.704,-44.014c-3.727,-15.174 -13.036,-26.329 -27.929,-33.465c-14.892,-7.136 -35.678,-7.427 -62.359,-0.875Z" style="fill:#fff;fill-rule:nonzero;"/><path d="M12936.5,5684.36c-13.465,-10.523 -23.643,-21.223 -30.534,-32.102c-6.892,-10.878 -11.729,-23.077 -14.511,-36.596c-4.592,-22.319 -2.67,-40.594 5.767,-54.826c8.437,-14.233 21.137,-23.094 38.099,-26.585c9.948,-2.047 19.501,-1.653 28.659,1.182c9.158,2.834 16.978,7.407 23.461,13.716c6.483,6.31 11.945,13.794 16.385,22.452c3.176,6.392 6.998,16.24 11.464,29.545c9.037,27.121 17.203,46.777 24.498,58.968c4.745,-0.844 7.755,-1.397 9.03,-1.659c14.029,-2.887 23.244,-8.173 27.645,-15.858c5.969,-10.401 7.168,-24.274 3.599,-41.619c-3.333,-16.197 -8.631,-27.57 -15.894,-34.118c-7.264,-6.548 -18.482,-10.188 -33.654,-10.921l-2.338,-34.614c15.042,0.095 27.716,2.738 38.023,7.928c10.308,5.191 19.217,13.926 26.729,26.205c7.512,12.28 13.066,27.156 16.662,44.628c3.569,17.345 4.429,31.858 2.578,43.538c-1.85,11.68 -5.343,20.708 -10.479,27.082c-5.135,6.374 -12.212,11.553 -21.23,15.536c-5.63,2.355 -16.098,5.107 -31.402,8.256l-45.913,9.448c-32.011,6.588 -52.107,11.488 -60.286,14.7c-8.18,3.212 -15.713,7.786 -22.6,13.723l-7.401,-35.965c6.407,-5.041 14.288,-9.055 23.643,-12.044Zm76.314,-18.695c-7.674,-11.449 -15.868,-29.304 -24.583,-53.567c-4.954,-13.736 -9.309,-23.275 -13.067,-28.617c-3.758,-5.342 -8.421,-9.102 -13.987,-11.28c-5.566,-2.178 -11.346,-2.65 -17.34,-1.416c-9.183,1.889 -16.12,6.939 -20.811,15.15c-4.692,8.21 -5.66,19.011 -2.904,32.402c2.73,13.264 8.059,24.464 15.987,33.6c7.929,9.137 17.43,15.091 28.502,17.864c8.541,2.098 20.4,1.585 35.577,-1.538l12.626,-2.598Z" style="fill:#fff;fill-rule:nonzero;"/><path d="M12950.4,5908.24l25.807,-4.352c-22.473,-9.547 -35.832,-26.903 -40.075,-52.069c-2.75,-16.306 -0.784,-32.054 5.897,-47.244c6.682,-15.19 17.446,-27.899 32.293,-38.127c14.847,-10.229 32.735,-17.108 53.663,-20.637c20.415,-3.443 39.51,-3.164 57.285,0.837c17.775,4.001 32.239,12.06 43.394,24.175c11.154,12.116 18.15,26.584 20.986,43.404c2.079,12.326 1.33,23.742 -2.246,34.249c-3.576,10.506 -9.028,19.481 -16.356,26.923l101.304,-17.084l5.813,34.474l-282.341,47.614l-5.424,-32.163Zm83.594,-126.799c-26.193,4.417 -44.842,13.24 -55.948,26.469c-11.106,13.228 -15.392,27.354 -12.859,42.376c2.555,15.151 10.921,26.978 25.098,35.481c14.176,8.503 33.976,10.611 59.398,6.324c27.99,-4.72 47.624,-13.577 58.901,-26.571c11.278,-12.994 15.585,-27.387 12.922,-43.18c-2.598,-15.407 -11.061,-27.218 -25.386,-35.432c-14.326,-8.214 -35.035,-10.036 -62.126,-5.467Z" style="fill:#fff;fill-rule:nonzero;"/><path d="M12979.5,6116.2l284.279,-34.196l4.525,37.62l-284.278,34.196l-4.526,-37.62Z" style="fill:#fff;fill-rule:nonzero;"/><path d="M12992.1,6226.6l284.859,-28.973l3.834,37.696l-284.859,28.973l-3.834,-37.696Z" style="fill:#fff;fill-rule:nonzero;"/><path d="M13002.7,6337.08l285.342,-23.75l3.142,37.76l-285.341,23.75l-3.143,-37.76Z" style="fill:#fff;fill-rule:nonzero;"/></g></g></svg>