<?xml version="1.0" encoding="UTF-8" standalone="no"?><!DOCTYPE svg PUBLIC "-//W3C//DTD SVG 1.1//EN" "http://www.w3.org/Graphics/SVG/1.1/DTD/svg11.dtd"><svg width="100%" height="100%" viewBox="0 0 1670 4639" version="1.1" xmlns="http://www.w3.org/2000/svg" xmlns:xlink="http://www.w3.org/1999/xlink" xml:space="preserve" xmlns:serif="http://www.serif.com/" style="fill-rule:evenodd;clip-rule:evenodd;stroke-linejoin:round;stroke-miterlimit:2;"><g><path d="M834.616,2482.81c-15.792,0.083 -28.75,13.208 -29.792,41.374c-5.708,194.792 -43.292,284.167 -47.375,583.042c-2.791,204.25 -83.625,311.459 -56.208,434.917c71.624,322.125 -68.292,481.292 11.833,756.125c28.958,99.917 22.25,187.625 23,289.833c0.208,32.375 -11.541,50.084 -46.208,50.584l-169.251,-0c-34.25,-1 -37.416,-29.375 -22.499,-52.792c89.333,-139.792 94.541,-252.708 47.458,-407.917c-106.125,-349.708 -108.541,-532.333 -81.291,-780.083c13.666,-124.167 4.666,-206.042 -14.543,-308.417c-31.874,-170.125 -53.416,-361.666 -51.332,-536.708c2.125,-178.5 11.208,-290.204 46.416,-474.163c27.208,-142.108 11.792,-184.725 34,-304.6c27.208,-147.137 -14.541,-279.695 -55.875,-408.383c-11.791,67.296 -19.458,106.404 -33.334,188.454c-47.541,280.558 -220.499,461.963 -229.458,763.858c-2.958,99.667 -25.833,111.084 -46.375,168.917c-12.249,34.417 -13.917,80.833 2.708,142.959c16.209,60.666 -15.916,87.624 -47.458,37.708c-66.291,-104.917 -79.625,-127.792 -61.875,-200.667c93.501,-384.654 52.625,-604.47 156.417,-882.262c48.292,-129.171 20.042,-182.363 55.583,-371.334c8.125,-43.221 12.375,-88.604 16.709,-132.566c12.958,-131.438 46.75,-225.238 185.749,-256.996c134.375,-30.7 296.292,-44.988 304.834,-222.7l216.333,-0c8.542,177.712 170.5,192 304.834,222.7c139,31.758 172.833,125.558 185.749,256.996c4.334,43.962 8.584,89.345 16.709,132.566c35.583,188.971 7.333,242.163 55.584,371.334c103.791,277.792 62.916,497.608 156.458,882.262c17.708,72.875 4.416,95.75 -61.875,200.667c-31.542,49.916 -63.709,22.958 -47.5,-37.708c16.625,-62.126 14.958,-108.542 2.75,-142.959c-20.583,-57.833 -43.458,-69.25 -46.417,-168.917c-8.958,-301.895 -181.875,-483.3 -229.416,-763.858c-13.917,-82.05 -21.543,-121.158 -33.375,-188.454c-41.334,128.688 -83.084,261.246 -55.834,408.383c22.167,119.875 6.75,162.492 33.959,304.6c35.208,183.959 44.291,295.663 46.416,474.163c2.083,175.042 -19.458,366.583 -51.333,536.708c-19.209,102.375 -28.208,184.25 -14.542,308.417c27.25,247.75 24.834,430.375 -81.25,780.083c-47.125,155.209 -41.916,268.125 47.417,407.917c14.958,23.417 11.75,51.792 -22.5,52.792l-169.209,-0c-34.667,-0.5 -46.458,-18.209 -46.208,-50.584c0.75,-102.208 -6,-189.916 23,-289.833c80.083,-274.833 -59.833,-434 11.792,-756.125c27.417,-123.458 -53.376,-230.667 -56.167,-434.917c-4.083,-298.875 -41.667,-388.25 -47.375,-583.042c-1.084,-28.166 -14,-41.291 -29.833,-41.374Z" style="fill:#33e46d;"/><path d="M834.616,0c113.541,0 207.916,50.233 217.75,173.696c3.458,48.733 -7.209,109.333 -10.917,133.354c-2.084,13.359 -2.333,21.75 8.708,22.058c15.917,0.463 25.25,16.617 18.251,45.025c-10.126,41.288 -27.876,61.884 -35.168,97.434c-3.291,16.037 -9.375,29.887 -24.457,26.716c-4.793,27.709 -10.334,47.642 -32.668,72.021c-24.291,25.292 -45.624,49.229 -71.958,71.079c-18.291,15.213 -41.541,22.725 -69.541,22.725c-27.959,0 -51.251,-7.512 -69.542,-22.725c-26.292,-21.85 -47.666,-45.787 -71.958,-71.079c-22.334,-24.379 -27.875,-44.312 -32.667,-72.021c-15.083,3.171 -21.125,-10.679 -24.458,-26.716c-7.25,-35.55 -25.042,-56.146 -35.167,-97.434c-6.958,-28.408 2.375,-44.562 18.25,-45.025c11.083,-0.308 10.834,-8.699 8.709,-22.058c-6.459,-40.916 -33.792,-192.642 28.041,-202.329c-2.792,-82.646 116.458,-104.721 178.792,-104.721Z" style="fill:#33e46d;"/></g></svg>