<?xml version="1.0" encoding="UTF-8" standalone="no"?><!DOCTYPE svg PUBLIC "-//W3C//DTD SVG 1.1//EN" "http://www.w3.org/Graphics/SVG/1.1/DTD/svg11.dtd"><svg width="100%" height="100%" viewBox="0 0 1670 4648" version="1.1" xmlns="http://www.w3.org/2000/svg" xmlns:xlink="http://www.w3.org/1999/xlink" xml:space="preserve" xmlns:serif="http://www.serif.com/" style="fill-rule:evenodd;clip-rule:evenodd;stroke-linejoin:round;stroke-miterlimit:2;"><g><path d="M942.806,572.921l-216.334,0c-8.583,177.708 -124.167,191.971 -258.542,222.7c-99.749,22.813 -149.04,81.933 -172.916,180.7c-47.375,195.641 -53.167,386.338 -121.625,585.096c-94.667,274.758 -72.708,474.171 -166.25,858.842c-17.708,72.875 -4.417,95.75 61.875,200.666c31.542,49.917 63.708,22.959 47.459,-37.708c-16.584,-62.125 -14.959,-108.542 -2.709,-142.958c20.584,-57.834 43.417,-69.25 46.375,-168.925c9,-301.913 175.792,-464.754 223.334,-745.334c18.832,-111.02 47.583,-177.087 81.624,-310.146c-0.125,64.721 8.876,99.584 32.417,172.379c48.209,148.892 -0.125,288.63 -52.958,476.955c-40.333,143.741 -37.584,192.079 -55.334,336.083c-13.958,113.471 -20.083,207.279 -3.666,319.738c25.249,173.25 87.749,364.083 119.708,534.249c19.25,102.459 45.125,178.042 19.125,299.25c-62,289.292 67.292,714.584 125.875,1003.04c19.916,97.959 31.25,155.125 -15.25,240.5c-13.333,24.459 -7.208,48.667 24.583,49.625l104.375,0c34.667,-0.5 46.501,-18.125 46.209,-50.583c-0.584,-65.417 -17.126,-147.208 -26.626,-247.167c-14.5,-151.875 18.917,-665.916 0.793,-851.208c-13.709,-139.834 16.416,-240.458 18.416,-374.375c4.958,-335.667 15.333,-422.333 2.042,-628.209c-1.792,-27.416 14,-41.291 29.833,-41.37c15.792,0.079 31.625,13.954 29.792,41.37c-13.291,205.876 -2.917,292.542 2.083,628.209c1.958,133.917 32.083,234.541 18.417,374.375c-18.166,185.292 15.249,699.333 0.749,851.208c-9.499,99.959 -26.041,181.75 -26.583,247.167c-0.291,32.458 11.542,50.083 46.167,50.583l104.416,0c31.751,-0.958 37.876,-25.166 24.543,-49.625c-46.501,-85.375 -35.167,-142.541 -15.251,-240.5c58.584,-288.458 187.875,-713.75 125.876,-1003.04c-26,-121.208 -0.125,-196.791 19.124,-299.25c31.959,-170.166 94.501,-360.999 119.708,-534.249c16.418,-112.459 10.292,-206.267 -3.666,-319.738c-17.75,-144.004 -15,-192.342 -55.333,-336.083c-52.833,-188.325 -101.167,-328.063 -52.958,-476.955c23.541,-72.795 32.542,-107.658 32.416,-172.379c34.042,133.059 62.833,199.126 81.625,310.146c47.542,280.58 214.334,443.421 223.333,745.334c2.959,99.675 25.792,111.091 46.375,168.925c12.251,34.416 13.917,80.833 -2.708,142.958c-16.25,60.667 15.917,87.625 47.458,37.708c66.334,-104.916 79.625,-127.791 61.875,-200.666c-93.541,-384.671 -71.583,-584.084 -166.208,-858.842c-68.5,-198.758 -74.292,-389.455 -121.667,-585.096c-23.875,-98.767 -73.166,-157.887 -172.917,-180.7c-134.375,-30.729 -249.958,-44.992 -258.499,-222.7Z" style="fill:#33e46d;"/><path d="M613.264,311.192c-6.375,1.317 -12.208,4.754 -15.375,11.746c-10.042,22.325 16,60.816 25.708,111.529c4.459,23.171 16.917,33.416 27.376,26.466c11.667,29.692 26.833,56.517 44.625,79.325c38.499,49.409 84.458,79.997 138.999,79.997c54.584,-0 100.542,-30.588 139.042,-79.997c17.792,-22.808 32.958,-49.645 44.625,-79.333c10.458,6.958 22.917,-3.287 27.375,-26.458c9.709,-50.713 35.751,-89.204 25.708,-111.529c-3.125,-7.004 -8.999,-10.421 -15.333,-11.733c9.751,-60.272 10.958,-127.276 -18.083,-191.784c-35.833,-79.7 -118.417,-119.442 -203.334,-119.421c-84.875,0 -167.458,39.713 -203.291,119.421c-29.042,64.521 -27.792,131.504 -18.042,191.771Z" style="fill:#33e46d;"/></g></svg>