<?xml version="1.0" encoding="UTF-8" standalone="no"?><!DOCTYPE svg PUBLIC "-//W3C//DTD SVG 1.1//EN" "http://www.w3.org/Graphics/SVG/1.1/DTD/svg11.dtd"><svg width="100%" height="100%" viewBox="0 0 1666 4639" version="1.1" xmlns="http://www.w3.org/2000/svg" xmlns:xlink="http://www.w3.org/1999/xlink" xml:space="preserve" xmlns:serif="http://www.serif.com/" style="fill-rule:evenodd;clip-rule:evenodd;stroke-linejoin:round;stroke-miterlimit:2;"><g><path d="M832.831,2482.81c-15.833,0.083 -27.833,11.712 -25.249,41.083c29.291,249.917 -14.167,340.625 -21.292,601.708c-6.75,245.584 -54.958,292.042 -42.708,399.375c46.333,406.209 -97.625,491.084 -32.334,773.292c23.458,101.333 22.251,187.625 23,289.833c0.251,32.375 -11.541,50.084 -46.208,50.584l-169.208,-0c-34.25,-1 -33.792,-27.459 -22.501,-52.792c72.167,-161.833 81.834,-254.625 28.918,-407.917c-120.792,-349.708 -164.334,-429.416 -90.543,-780.083c25.709,-122.208 -6.791,-209.5 -39.041,-308.417c-125.459,-384.875 -151.333,-604 -65.917,-988.816c20.543,-92.688 -5.958,-153.617 18.418,-311.946c23.791,-154.475 69.166,-195.763 56.916,-336.075c-10.584,58.108 -22.541,74.6 -33.958,129.625c-57.792,278.587 -203.834,433.783 -212.75,735.67c-2.959,99.626 -25.833,111.084 -46.418,168.917c-12.208,34.417 -13.874,80.833 2.751,142.959c16.208,60.666 -15.959,87.624 -47.501,37.708c-66.291,-104.917 -75.332,-126.917 -61.874,-200.667c68.999,-377.292 -18.75,-588.566 109.749,-889.621c41.834,-98.07 38.209,-170.462 50.334,-329.683c4.208,-55.633 8.542,-112.921 15.834,-168.083c17.249,-130.908 81.999,-239.038 220.042,-274.296c134.291,-34.296 314.832,-91.308 323.374,-269.021l216.333,0c8.542,177.713 189.084,234.725 323.334,269.021c138.083,35.258 202.833,143.388 220.083,274.296c7.292,55.162 11.584,112.45 15.834,168.083c12.124,159.221 8.457,231.613 50.333,329.683c128.5,301.055 40.75,512.329 109.75,889.621c13.458,73.75 4.375,95.75 -61.917,200.667c-31.541,49.916 -63.667,22.958 -47.458,-37.708c16.625,-62.126 14.959,-108.542 2.708,-142.959c-20.542,-57.833 -43.417,-69.291 -46.375,-168.917c-8.917,-301.887 -154.958,-457.083 -212.75,-735.67c-11.417,-55.025 -23.375,-71.517 -34,-129.625c-12.209,140.312 33.167,181.6 56.958,336.075c24.376,158.329 -2.125,219.258 18.417,311.946c85.375,384.816 59.542,603.941 -65.916,988.816c-32.25,98.917 -64.75,186.209 -39.042,308.417c73.791,350.667 30.208,430.375 -90.542,780.083c-52.958,153.292 -43.249,246.084 28.917,407.917c11.291,25.333 11.75,51.792 -22.5,52.792l-169.251,-0c-34.666,-0.5 -46.416,-18.209 -46.207,-50.584c0.749,-102.208 -0.417,-188.5 23,-289.833c65.291,-282.208 -78.667,-367.083 -32.292,-773.292c12.25,-107.333 -36,-153.791 -42.708,-399.375c-7.126,-261.083 -50.626,-351.791 -21.334,-601.708c2.626,-29.371 -9.417,-41 -25.209,-41.084Z" style="fill:#f8314c;"/><path d="M832.831,0c113.542,0 207.918,50.233 217.751,173.696c3.416,48.733 -7.209,109.333 -10.917,133.354c-2.083,13.359 -2.375,21.75 8.708,22.058c15.875,0.463 25.209,16.617 18.251,45.025c-10.125,41.288 -27.917,61.884 -35.167,97.434c-3.333,16.037 -9.375,29.887 -24.459,26.716c-4.833,27.709 -10.333,47.642 -32.667,72.021c-24.291,25.292 -45.666,49.229 -71.957,71.079c-18.292,15.213 -41.584,22.725 -69.543,22.725c-27.999,0 -51.25,-7.512 -69.541,-22.725c-26.334,-21.85 -47.666,-45.787 -71.958,-71.079c-22.333,-24.379 -27.875,-44.312 -32.667,-72.021c-15.083,3.171 -21.166,-10.679 -24.458,-26.716c-7.292,-35.55 -25.042,-56.146 -35.167,-97.434c-7,-28.408 2.333,-44.562 18.25,-45.025c11.042,-0.308 10.834,-8.699 8.709,-22.058c-6.459,-40.916 -33.793,-192.642 28.041,-202.329c-2.833,-82.646 116.458,-104.721 178.791,-104.721Z" style="fill:#f8314c;"/></g></svg>