<?xml version="1.0" encoding="UTF-8" standalone="no"?><!DOCTYPE svg PUBLIC "-//W3C//DTD SVG 1.1//EN" "http://www.w3.org/Graphics/SVG/1.1/DTD/svg11.dtd"><svg width="100%" height="100%" viewBox="0 0 1703 4639" version="1.1" xmlns="http://www.w3.org/2000/svg" xmlns:xlink="http://www.w3.org/1999/xlink" xml:space="preserve" xmlns:serif="http://www.serif.com/" style="fill-rule:evenodd;clip-rule:evenodd;stroke-linejoin:round;stroke-miterlimit:2;"><g><path d="M851.345,2482.81c-15.792,0.083 -21.708,14.166 -19.078,43.541c26.833,252.375 5.416,343.084 -15.214,598.042c-19.791,244.875 -50.036,293.291 -37.787,400.583c46.334,406.209 -107.416,491.084 -42.125,773.292c23.417,101.333 14.917,187.625 15.667,289.833c0.208,32.375 -11.542,50.084 -46.208,50.584l-169.251,-0c-28.417,0.375 -35.708,-27.542 -26.499,-53.709c63.583,-180.25 66.25,-254.958 20.666,-408.25c-105.458,-354.541 -159.416,-437.958 -100.333,-786.166c20.875,-123.126 -2.958,-196.209 -34.167,-296.167c-188.583,-604.125 -156.958,-813.738 -70.916,-1249.31c12.999,-65.925 24.874,-110.046 32.999,-189.296c-63.75,256.754 -192.416,379.854 -200.749,662.149c-2.917,99.584 -25.834,111.084 -46.375,168.917c-12.209,34.375 -13.875,80.833 2.708,142.959c16.208,60.666 -15.917,87.624 -47.459,37.708c-66.291,-104.917 -75.374,-126.958 -61.874,-200.667c68.917,-377.279 -46.542,-588.587 81.916,-889.621c41.833,-98.041 38.251,-170.479 50.334,-329.683c4.208,-55.604 9.124,-112.883 15.833,-168.083c19.708,-161.525 109.875,-239.067 247.875,-274.296c134.25,-34.254 330.875,-95.125 341.875,-287.546l216.328,-0c11.005,192.421 207.626,253.292 341.881,287.546c138,35.229 228.165,112.771 247.873,274.296c6.71,55.2 11.626,112.479 15.835,168.083c12.083,159.204 8.5,231.642 50.334,329.683c128.456,301.034 12.998,512.342 81.915,889.621c13.501,73.709 4.417,95.75 -61.875,200.667c-31.541,49.916 -63.666,22.958 -47.457,-37.708c16.583,-62.126 14.917,-108.584 2.708,-142.959c-20.543,-57.833 -43.459,-69.333 -46.375,-168.917c-8.333,-282.295 -137.001,-405.395 -200.751,-662.149c8.126,79.25 20,123.371 33,189.296c86.041,435.574 117.668,645.187 -70.917,1249.31c-31.207,99.958 -55.041,173.041 -34.165,296.167c59.082,348.208 5.125,431.625 -100.334,786.166c-45.583,153.292 -42.922,228 20.667,408.25c9.208,26.167 1.916,54.084 -26.5,53.709l-169.25,-0c-34.625,-0.5 -46.417,-18.209 -46.167,-50.584c0.751,-102.208 -7.796,-188.5 15.625,-289.833c65.291,-282.208 -88.458,-367.083 -42.125,-773.292c12.25,-107.292 -18.005,-155.708 -37.797,-400.583c-20.619,-254.958 -42.037,-345.667 -15.204,-598.042c2.621,-29.375 -3.249,-43.458 -19.087,-43.542Z" style="fill:#c7327a;"/><path d="M851.345,0c113.541,0 207.922,50.233 217.755,173.696c3.416,48.733 -7.208,109.333 -10.917,133.354c-2.084,13.359 -2.334,21.75 8.703,22.058c15.876,0.463 25.251,16.617 18.256,45.025c-10.126,41.288 -27.875,61.884 -35.166,97.434c-3.292,16.037 -9.375,29.887 -24.459,26.716c-4.792,27.709 -10.334,47.642 -32.672,72.021c-24.286,25.292 -45.667,49.229 -71.959,71.079c-18.286,15.213 -41.583,22.725 -69.541,22.725c-27.958,0 -51.245,-7.512 -69.538,-22.725c-26.29,-21.85 -47.666,-45.787 -71.957,-71.079c-22.334,-24.379 -27.876,-44.312 -32.667,-72.021c-15.084,3.171 -21.167,-10.679 -24.459,-26.716c-7.25,-35.55 -25.042,-56.146 -35.166,-97.434c-6.958,-28.408 2.375,-44.562 18.25,-45.025c11.083,-0.308 10.833,-8.699 8.708,-22.058c-6.459,-40.916 -33.791,-192.642 28.042,-202.329c-2.792,-82.646 116.459,-104.721 178.787,-104.721Z" style="fill:#c7327a;"/></g></svg>