<?xml version="1.0" encoding="UTF-8" standalone="no"?><!DOCTYPE svg PUBLIC "-//W3C//DTD SVG 1.1//EN" "http://www.w3.org/Graphics/SVG/1.1/DTD/svg11.dtd"><svg width="100%" height="100%" viewBox="0 0 1671 4648" version="1.1" xmlns="http://www.w3.org/2000/svg" xmlns:xlink="http://www.w3.org/1999/xlink" xml:space="preserve" xmlns:serif="http://www.serif.com/" style="fill-rule:evenodd;clip-rule:evenodd;stroke-linejoin:round;stroke-miterlimit:2;"><g><path d="M835.264,2454.76c-15.792,0.079 -34.001,14.329 -29.793,41.37c32.834,196.542 21.834,281.459 18.625,587.626c-2,188.041 -50.75,287.124 -29.833,414.958c48.792,298.625 -18.416,696.292 -3.958,848.167c9.542,99.958 19.917,184.791 20.5,250.208c0.292,32.458 -11.542,50.083 -46.208,50.583l-104.375,0c-31.751,-0.958 -36.126,-24.333 -24.542,-49.625c30.5,-66.583 11.792,-157.958 -6.708,-226.958c-78.083,-291.167 -254.042,-658.208 -187.292,-1016.58c20.375,-109.333 0.208,-175.958 -40.666,-271.666c-59.459,-139.417 -139.5,-341.208 -163.043,-561.833c-12.041,-112.792 7.417,-209.659 31.501,-319.738c35.458,-162.192 7.083,-234.092 163.999,-566.196c31.208,-66.071 37.667,-149.121 19.292,-229.221c-2.333,-10.208 -4.75,-13.837 -8.875,-38.35c-11.791,42.68 -22.25,92.171 -35.167,169.225c-58.041,346.346 -232.832,423.521 -247.916,734.605c-4.833,99.591 -25.792,111.091 -46.375,168.925c-12.251,34.416 -13.917,80.833 2.708,142.958c16.209,60.667 -15.917,87.625 -47.458,37.708c-66.334,-104.916 -81.083,-128.208 -61.917,-200.666c62.876,-237.605 -24.083,-468.051 147.75,-877.371c61.375,-146.267 -17.542,-194.788 107.75,-566.567c35.501,-105.408 107,-152.641 205.334,-180.7c134.333,-38.313 240.708,-88.104 249.249,-250.492l234.876,0c8.542,162.388 114.917,212.179 249.208,250.492c98.333,28.059 169.834,75.292 205.334,180.7c125.291,371.779 46.374,420.3 107.791,566.567c171.791,409.32 84.834,639.766 147.708,877.371c19.167,72.458 4.417,95.75 -61.874,200.666c-31.542,49.917 -63.709,22.959 -47.501,-37.708c16.625,-62.125 14.959,-108.542 2.751,-142.958c-20.585,-57.834 -41.584,-69.334 -46.418,-168.925c-15.082,-311.084 -189.833,-388.259 -247.875,-734.605c-12.916,-77.054 -23.416,-126.545 -35.208,-169.225c-4.083,24.513 -6.542,28.142 -8.874,38.35c-18.376,80.1 -11.917,163.15 19.291,229.221c156.916,332.104 128.542,404.004 164.042,566.196c24.083,110.079 43.5,206.946 31.458,319.738c-23.5,220.625 -103.541,422.416 -163.042,561.833c-40.833,95.708 -61,162.333 -40.666,271.666c66.75,358.376 -109.208,725.417 -187.292,1016.58c-18.501,69 -37.209,160.375 -6.667,226.958c11.584,25.292 7.167,48.667 -24.583,49.625l-104.375,0c-34.667,-0.5 -46.5,-18.125 -46.209,-50.583c0.584,-65.417 10.959,-150.25 20.501,-250.208c14.458,-151.875 -52.751,-549.542 -3.917,-848.167c20.875,-127.834 -27.875,-226.917 -29.833,-414.958c-3.25,-306.167 -14.25,-391.084 18.625,-587.626c4.208,-27.041 -14,-41.291 -29.833,-41.37Z" style="fill:#f83169;"/><path d="M613.888,311.192c-6.333,1.317 -12.208,4.754 -15.333,11.746c-10.041,22.325 15.959,60.816 25.708,111.529c4.459,23.171 16.917,33.416 27.375,26.466c11.667,29.692 26.833,56.517 44.583,79.325c38.542,49.409 84.501,79.997 139.043,79.997c54.582,-0 100.499,-30.588 139.041,-79.997c17.791,-22.808 32.917,-49.645 44.583,-79.333c10.458,6.958 22.958,-3.287 27.417,-26.458c9.708,-50.713 35.708,-89.204 25.708,-111.529c-3.167,-7.004 -9,-10.421 -15.375,-11.733c9.75,-60.272 10.959,-127.276 -18.041,-191.784c-35.875,-79.7 -118.417,-119.442 -203.333,-119.421c-84.876,0 -167.46,39.713 -203.334,119.421c-29,64.521 -27.791,131.504 -18.042,191.771Z" style="fill:#f83169;"/></g></svg>