<?xml version="1.0" encoding="UTF-8" standalone="no"?><!DOCTYPE svg PUBLIC "-//W3C//DTD SVG 1.1//EN" "http://www.w3.org/Graphics/SVG/1.1/DTD/svg11.dtd"><svg width="100%" height="100%" viewBox="0 0 1671 4648" version="1.1" xmlns="http://www.w3.org/2000/svg" xmlns:xlink="http://www.w3.org/1999/xlink" xml:space="preserve" xmlns:serif="http://www.serif.com/" style="fill-rule:evenodd;clip-rule:evenodd;stroke-linejoin:round;stroke-miterlimit:2;"><g><path d="M952.681,563.655l-234.834,-0c-8.583,177.712 -114.917,201.274 -249.25,231.966c-99.75,22.779 -160.833,83.887 -191.5,180.7c-96.291,304.358 -41.124,399.104 -112.333,566.567c-159.75,375.575 -94.125,639.766 -157,877.371c-19.167,72.504 -4.417,95.75 61.875,200.666c31.583,49.917 63.708,22.959 47.5,-37.708c-16.625,-62.125 -14.958,-108.542 -2.709,-142.958c20.543,-57.834 41.542,-69.334 46.376,-168.925c15.083,-311.092 184.791,-397.409 232.583,-745.334c12.167,-88.558 38.334,-141.871 56.25,-230.5c2.208,35.617 8.792,67.175 16.916,105.763c30.876,146.971 -39.583,291.55 -79.166,469.279c-28.708,128.958 -22.792,233.825 -43.834,330.729c-23.916,110.188 -43.583,206.821 -31.457,319.738c23.625,220.666 97.124,364.166 147.499,534.249c29.584,99.876 54.334,178.084 28.376,299.25c-62.876,293.667 95.541,721.334 156.457,1016.58c13.917,67.5 23.292,126.666 -8.791,226.958c-8.458,26.542 -7.166,48.667 24.583,49.625l104.375,0c34.667,-0.5 46.5,-18.125 46.209,-50.583c-0.584,-65.417 -17.084,-147.208 -26.626,-247.167c-14.458,-151.875 48.167,-613.875 10.043,-851.208c-22.251,-138.708 25.708,-240.5 27.708,-374.375c4.916,-335.667 15.333,-422.333 -16.5,-628.209c-1.792,-27.416 13.999,-41.291 29.833,-41.37c15.792,0.079 31.625,13.954 29.834,41.37c-31.834,205.876 -21.417,292.542 -16.501,628.209c2.001,133.875 49.959,235.667 27.709,374.375c-38.126,237.333 24.499,699.333 10.041,851.208c-9.542,99.959 -26.042,181.75 -26.624,247.167c-0.292,32.458 11.541,50.083 46.207,50.583l104.375,0c31.751,-0.958 33.043,-23.083 24.543,-49.625c-32.043,-100.292 -22.668,-159.458 -8.751,-226.958c60.917,-295.25 219.334,-722.917 156.459,-1016.58c-25.958,-121.166 -1.209,-199.374 28.375,-299.25c50.374,-170.083 123.875,-313.583 147.5,-534.249c12.124,-112.917 -7.542,-209.55 -31.459,-319.738c-21.042,-96.904 -15.124,-201.771 -43.833,-330.729c-39.584,-177.729 -110.042,-322.308 -79.167,-469.279c8.126,-38.588 14.709,-70.146 16.917,-105.763c17.917,88.629 44.084,141.942 56.25,230.5c47.792,347.925 217.5,434.242 232.584,745.334c4.833,99.591 25.833,111.091 46.374,168.925c12.251,34.416 13.917,80.833 -2.708,142.958c-16.209,60.667 15.917,87.625 47.5,37.708c66.292,-104.916 81.041,-128.162 61.875,-200.666c-62.875,-237.605 2.75,-501.796 -157,-877.371c-71.208,-167.463 -16.042,-262.209 -112.375,-566.567c-30.625,-96.813 -91.708,-157.921 -191.459,-180.7c-134.333,-30.692 -240.666,-54.254 -249.249,-231.966Z" style="fill:#ff3946;"/><path d="M613.889,311.192c-6.375,1.317 -12.208,4.754 -15.333,11.746c-10.042,22.325 15.958,60.816 25.708,111.529c4.417,23.171 16.917,33.416 27.375,26.466c11.666,29.692 26.792,56.517 44.584,79.325c38.541,49.409 84.458,79.997 139.041,79.997c54.584,-0 100.5,-30.588 139.042,-79.997c17.792,-22.808 32.916,-49.645 44.583,-79.333c10.458,6.958 22.958,-3.287 27.375,-26.458c9.75,-50.713 35.75,-89.204 25.708,-111.529c-3.125,-7.004 -8.958,-10.421 -15.333,-11.733c9.75,-60.272 10.958,-127.276 -18.042,-191.784c-35.874,-79.7 -118.416,-119.442 -203.333,-119.421c-84.916,0 -167.458,39.713 -203.334,119.421c-29.041,64.521 -27.791,131.504 -18.041,191.771Z" style="fill:#ff3946;"/></g></svg>