<?xml version="1.0" encoding="UTF-8" standalone="no"?><!DOCTYPE svg PUBLIC "-//W3C//DTD SVG 1.1//EN" "http://www.w3.org/Graphics/SVG/1.1/DTD/svg11.dtd"><svg width="100%" height="100%" viewBox="0 0 1687 4648" version="1.1" xmlns="http://www.w3.org/2000/svg" xmlns:xlink="http://www.w3.org/1999/xlink" xml:space="preserve" xmlns:serif="http://www.serif.com/" style="fill-rule:evenodd;clip-rule:evenodd;stroke-linejoin:round;stroke-miterlimit:2;"><g><path d="M960.56,526.604l-234.875,0c-11.625,173.105 -114.958,230.721 -249.25,269.017c-98.291,28.038 -169.833,62.638 -216.875,181.467c-144.208,364.042 -19.25,448.458 -96.208,565.8c-218.042,332.454 -92.541,634.412 -155.375,871.995c-19.167,72.459 -6.709,107.251 69.541,206.042c36.083,46.75 63.709,22.959 47.459,-37.708c-16.625,-62.125 -14.958,-108.542 -2.709,-142.958c20.583,-57.834 41.542,-69.334 46.376,-168.925c15.124,-311.084 199.499,-418.084 247.917,-734.605c6.208,-40.716 12.665,-50.708 24.457,-93.383c-3.458,44.871 -3.083,80.108 1.417,118.133c6.125,51.725 0.333,76.163 -17.708,110.959c-140.5,270.804 -142.084,334.204 -185.959,521.183c-56.791,242.35 -98.124,372.304 14.209,655.679c30.083,75.834 82.499,194.875 111.25,256.5c44.541,95.459 65.5,159.375 48.25,248.708c-66.084,342.292 99.667,696.959 194.208,978.375c25.042,74.542 71.209,185.959 36.834,265.167c-11.084,25.5 -7.209,48.667 24.541,49.625l104.417,0c34.62,-0.5 46.459,-18.167 46.162,-50.583c-0.537,-65.417 7.588,-150.25 -1.953,-250.208c-14.46,-151.875 42.124,-549.292 -14.584,-848.167c-21.667,-114.125 32.459,-125.833 29.828,-414.958c-2.791,-306.167 14.213,-391.084 -18.62,-587.626c-4.213,-27.041 14,-41.291 29.792,-41.37c15.828,0.079 34.041,14.329 29.834,41.37c-32.833,196.542 -15.839,281.459 -18.626,587.626c-2.625,289.125 51.495,300.833 29.834,414.958c-56.708,298.875 -0.167,696.292 -14.63,848.167c-9.495,99.958 -1.37,184.791 -1.954,250.208c-0.25,32.416 11.542,50.083 46.208,50.583l104.376,0c31.745,-0.958 35.661,-24.125 24.583,-49.625c-34.375,-79.208 11.792,-190.625 36.833,-265.167c94.541,-281.416 260.293,-636.083 194.208,-978.375c-17.249,-89.333 3.709,-153.249 48.25,-248.708c28.709,-61.625 81.167,-180.666 111.251,-256.5c112.333,-283.375 71,-413.329 14.166,-655.679c-43.833,-186.979 -45.459,-250.379 -185.917,-521.183c-18.083,-34.796 -23.875,-59.234 -17.749,-110.959c4.541,-38.025 4.915,-73.262 1.416,-118.133c11.833,42.675 18.25,52.667 24.5,93.383c48.376,316.521 232.792,423.521 247.916,734.605c4.793,99.591 25.792,111.091 46.377,168.925c12.249,34.416 13.873,80.833 -2.71,142.958c-16.25,60.667 11.375,84.458 47.459,37.708c76.249,-98.791 88.708,-133.583 69.541,-206.042c-62.874,-237.583 62.667,-539.541 -155.375,-871.995c-76.957,-117.342 48,-201.758 -96.208,-565.8c-47.082,-118.829 -118.583,-153.429 -216.874,-181.467c-134.334,-38.296 -237.626,-95.912 -249.251,-269.017Z" style="fill:#c7327a;"/><path d="M621.727,311.192c-6.333,1.317 -12.209,4.754 -15.334,11.746c-10.041,22.325 16,60.816 25.709,111.529c4.458,23.171 16.916,33.416 27.374,26.466c11.667,29.692 26.834,56.517 44.585,79.325c38.541,49.409 84.5,79.997 139.041,79.997c54.583,-0 100.537,-30.588 139.042,-79.997c17.792,-22.808 32.959,-49.645 44.578,-79.333c10.5,6.958 22.963,-3.287 27.417,-26.458c9.713,-50.713 35.754,-89.204 25.708,-111.529c-3.162,-7.004 -8.995,-10.421 -15.375,-11.733c9.796,-60.272 11.005,-127.276 -18.042,-191.784c-35.828,-79.7 -118.416,-119.442 -203.328,-119.421c-84.875,0 -167.458,39.713 -203.292,119.421c-29.042,64.521 -27.833,131.504 -18.083,191.771Z" style="fill:#c7327a;"/></g></svg>