<?xml version="1.0" encoding="UTF-8" standalone="no"?><!DOCTYPE svg PUBLIC "-//W3C//DTD SVG 1.1//EN" "http://www.w3.org/Graphics/SVG/1.1/DTD/svg11.dtd"><svg width="100%" height="100%" viewBox="0 0 1670 4648" version="1.1" xmlns="http://www.w3.org/2000/svg" xmlns:xlink="http://www.w3.org/1999/xlink" xml:space="preserve" xmlns:serif="http://www.serif.com/" style="fill-rule:evenodd;clip-rule:evenodd;stroke-linejoin:round;stroke-miterlimit:2;"><g><path d="M834.64,2454.76c-15.834,0.079 -31.626,13.954 -29.834,41.37c31.834,205.876 12.167,292.542 7.209,628.209c-1.959,133.875 -35.375,234.917 -18.417,374.375c28.834,237.333 -24.542,699.333 -10.042,851.208c9.5,99.959 26.042,181.75 26.625,247.167c0.292,32.458 -11.542,50.083 -46.208,50.583l-104.375,0c-31.751,-0.958 -35.542,-24 -24.584,-49.625c35.5,-83.083 22.751,-159.458 8.792,-226.958c-60.875,-295.292 -200.833,-722.917 -137.917,-1016.58c25.959,-121.166 10.458,-199.333 -19.124,-299.25c-50.459,-170.124 -103.793,-361.041 -129,-534.249c-16.376,-112.417 -11.001,-209.509 12.958,-319.738c21.042,-96.95 8.458,-220.408 53.041,-336.85c52.25,-136.616 99.251,-326.046 55.25,-476.188c-18.166,-62.016 -20.916,-91.575 -23.125,-127.191c-24.041,87.104 -53.583,153.946 -72.416,264.958c-47.541,280.571 -214.333,443.421 -223.292,745.334c-3,99.675 -25.833,111.091 -46.416,168.925c-12.25,34.416 -13.876,80.833 2.749,142.958c16.209,60.667 -15.957,87.625 -47.499,37.708c-66.293,-104.916 -79.584,-127.791 -61.876,-200.666c93.542,-384.671 71.584,-584.084 166.251,-858.842c68.458,-198.758 74.249,-389.455 121.625,-585.096c23.875,-98.767 73.167,-157.891 172.958,-180.7c134.333,-30.717 240.667,-54.254 249.209,-231.966l234.874,-0c8.542,177.712 114.875,201.249 249.25,231.966c99.75,22.809 149.042,81.933 172.959,180.7c47.332,195.641 53.166,386.338 121.624,585.096c94.625,274.758 72.667,474.171 166.208,858.842c17.75,72.875 4.459,95.75 -61.874,200.666c-31.542,49.917 -63.709,22.959 -47.459,-37.708c16.625,-62.125 14.959,-108.542 2.709,-142.958c-20.583,-57.834 -43.416,-69.25 -46.376,-168.925c-8.957,-301.913 -175.791,-464.763 -223.332,-745.334c-18.792,-111.012 -48.334,-177.854 -72.417,-264.958c-2.167,35.616 -4.917,65.175 -23.084,127.191c-43.999,150.142 2.959,339.572 55.25,476.188c44.584,116.442 31.959,239.9 53.042,336.85c23.958,110.229 29.291,207.321 12.958,319.738c-25.208,173.208 -78.583,364.125 -128.999,534.249c-29.626,99.917 -45.084,178.084 -19.126,299.25c62.917,293.667 -77.083,721.292 -137.916,1016.58c-14,67.5 -26.75,143.875 8.75,226.958c10.958,25.625 7.208,48.667 -24.542,49.625l-104.375,0c-34.667,-0.5 -46.499,-18.125 -46.209,-50.583c0.584,-65.417 17.084,-147.208 26.626,-247.167c14.458,-151.875 -38.917,-613.875 -10.084,-851.208c16.959,-139.458 -16.416,-240.5 -18.416,-374.375c-4.958,-335.667 -24.625,-422.333 7.208,-628.209c1.833,-27.416 -13.999,-41.291 -29.791,-41.37Z" style="fill:#ff9439;"/><path d="M613.264,311.192c-6.375,1.317 -12.208,4.754 -15.375,11.746c-9.999,22.325 16.001,60.816 25.75,111.529c4.417,23.171 16.875,33.416 27.375,26.466c11.667,29.692 26.792,56.517 44.584,79.325c38.541,49.409 84.458,79.997 139.042,79.997c54.541,-0 100.499,-30.588 138.999,-79.997c17.834,-22.808 32.959,-49.645 44.626,-79.333c10.458,6.958 22.958,-3.287 27.374,-26.458c9.709,-50.713 35.751,-89.204 25.709,-111.529c-3.125,-7.004 -8.959,-10.421 -15.334,-11.733c9.751,-60.272 10.959,-127.276 -18.082,-191.784c-35.834,-79.7 -118.418,-119.442 -203.292,-119.421c-84.918,0 -167.5,39.713 -203.334,119.421c-29.041,64.521 -27.791,131.504 -18.042,191.771Z" style="fill:#ff9439;"/></g></svg>