<?xml version="1.0" encoding="UTF-8" standalone="no"?><!DOCTYPE svg PUBLIC "-//W3C//DTD SVG 1.1//EN" "http://www.w3.org/Graphics/SVG/1.1/DTD/svg11.dtd"><svg width="100%" height="100%" viewBox="0 0 1670 4639" version="1.1" xmlns="http://www.w3.org/2000/svg" xmlns:xlink="http://www.w3.org/1999/xlink" xml:space="preserve" xmlns:serif="http://www.serif.com/" style="fill-rule:evenodd;clip-rule:evenodd;stroke-linejoin:round;stroke-miterlimit:2;"><g><path d="M834.597,2482.81c-15.791,0.083 -31.208,12.625 -29.791,41.374c9.667,204.584 -42.084,318.5 -43.709,581.834c-1.25,204.25 -87.291,312.667 -59.833,436.125c71.584,322.125 -68.333,481.292 11.792,756.125c28.999,99.917 22.25,187.625 23,289.833c0.25,32.375 -11.542,50.084 -46.209,50.584l-169.208,-0c-34.291,-1 -37.458,-29.375 -22.542,-52.792c89.376,-139.792 94.542,-252.708 47.459,-407.917c-106.083,-349.708 -108.542,-532.333 -81.292,-780.083c13.667,-124.167 4.666,-206.042 -14.5,-308.417c-31.875,-170.125 -67.583,-365.375 -65.541,-540.375c2.125,-178.5 14.291,-286.946 51.333,-470.496c24.708,-122.47 -8.5,-144.296 19.792,-302.145c26.416,-147.259 11.417,-271.121 -29.917,-399.809c-11.833,67.3 -21.959,95.388 -35.833,177.425c-47.543,280.558 -220.501,461.963 -229.459,763.858c-2.958,99.667 -25.791,111.084 -46.375,168.917c-12.25,34.417 -13.875,80.833 2.709,142.959c16.249,60.666 -15.917,87.624 -47.459,37.708c-66.292,-104.917 -79.583,-127.792 -61.875,-200.667c93.5,-384.654 52.625,-604.47 156.417,-882.262c48.291,-129.171 24.958,-181.146 55.625,-371.334c6.959,-43.416 8.666,-89.837 13,-133.791c12.958,-131.438 50.458,-224.013 189.458,-255.771c134.333,-30.688 296.25,-44.988 304.791,-222.7l216.334,-0c8.583,177.712 170.5,192.012 304.833,222.7c139.001,31.758 176.501,124.333 189.459,255.771c4.291,43.954 5.999,90.375 13,133.791c30.666,190.188 7.334,242.163 55.625,371.334c103.792,277.792 62.917,497.608 156.416,882.262c17.709,72.875 4.417,95.75 -61.875,200.667c-31.541,49.916 -63.708,22.958 -47.458,-37.708c16.583,-62.126 14.917,-108.542 2.708,-142.959c-20.583,-57.833 -43.416,-69.25 -46.375,-168.917c-8.999,-301.895 -181.916,-483.3 -229.458,-763.858c-13.916,-82.037 -24,-110.125 -35.833,-177.425c-41.334,128.688 -56.333,252.55 -29.959,399.809c28.292,157.849 -4.916,179.675 19.833,302.145c37.043,183.55 49.209,291.996 51.292,470.496c2.084,175 -33.625,370.25 -65.5,540.375c-19.167,102.375 -28.208,184.25 -14.541,308.417c27.292,247.75 24.833,430.375 -81.25,780.083c-47.125,155.209 -41.917,268.125 47.416,407.917c14.959,23.417 11.792,51.792 -22.5,52.792l-169.208,-0c-34.666,-0.5 -46.458,-18.209 -46.208,-50.584c0.75,-102.208 -6,-189.916 23,-289.833c80.083,-274.833 -59.792,-434 11.791,-756.125c27.459,-123.458 -58.583,-231.875 -59.833,-436.125c-1.625,-263.334 -53.375,-377.25 -43.708,-581.834c1.374,-28.749 -14,-41.291 -29.834,-41.374Z" style="fill:#ff9439;"/><path d="M834.597,0c113.542,0 207.959,50.233 217.75,173.696c3.459,48.733 -7.208,109.333 -10.916,133.354c-2.083,13.359 -2.334,21.75 8.749,22.058c15.876,0.463 25.209,16.617 18.251,45.025c-10.125,41.288 -27.917,61.884 -35.208,97.434c-3.292,16.037 -9.375,29.887 -24.459,26.716c-4.791,27.709 -10.292,47.642 -32.666,72.021c-24.25,25.292 -45.626,49.229 -71.917,71.079c-18.334,15.213 -41.583,22.725 -69.584,22.725c-27.958,0 -51.208,-7.512 -69.541,-22.725c-26.292,-21.85 -47.667,-45.787 -71.917,-71.079c-22.375,-24.379 -27.875,-44.312 -32.666,-72.021c-15.084,3.171 -21.167,-10.679 -24.459,-26.716c-7.292,-35.55 -25.083,-56.146 -35.208,-97.434c-6.958,-28.408 2.375,-44.562 18.249,-45.025c11.084,-0.308 10.834,-8.699 8.751,-22.058c-6.459,-40.916 -33.834,-192.642 28,-202.329c-2.792,-82.646 116.458,-104.721 178.791,-104.721Z" style="fill:#ff9439;"/></g></svg>